<svg width="522" height="182" viewBox="0 0 522 182" fill="none" xmlns="http://www.w3.org/2000/svg">
<path d="
    M0.333333 179
        C0.333333 180.473 1.52724 181.667 3 181.667
        C4.47276 181.667 5.66667 180.473 5.66667 179
        C5.66667 177.527 4.47276 176.333 3 176.333
        C1.52724 176.333 0.333333 177.527 0.333333 179
        Z
    M517 3.5L522 5.88675
        V0.113249L517 2.5
        V3.5Z
    M3 179.5
        H131.782
        V178.5H3
        V179.5Z
    M212.282 99
        V83
        H211.282
        V99
        H212.282Z
    M291.782 3.5
        H517.5
        V2.5
        H291.782
        V3.5Z
    M212.282 83
        C212.282 39.0934 247.875 3.5 291.782 3.5
        V2.5
        C247.323 2.5 211.282 38.5411 211.282 83
        H212.282Z
    M131.782 179.5
        C176.241 179.5 212.282 143.459 212.282 99
        H211.282
        C211.282 142.907 175.688 178.5 131.782 178.5V179.5Z" 
    fill="#ADA8C3"/>
</svg>
