<svg xmlns="http://www.w3.org/2000/svg" x="0px" y="0px" width="100" height="100" viewBox="0,0,256,256">
<defs>
<linearGradient x1="28" y1="12.352" x2="28" y2="53.263" gradientUnits="userSpaceOnUse" id="color-1_rLvjylyopRJT_gr1">
<stop offset="0" stop-color="#f9fbfc"></stop><stop offset="1" stop-color="#faf8fb"></stop>
</linearGradient>
<linearGradient x1="28" y1="12.352" x2="28" y2="53.263" gradientUnits="userSpaceOnUse" id="color-2_rLvjylyopRJT_gr2">
<stop offset="0" stop-color="#f9fbfc"></stop><stop offset="1" stop-color="#faf8fb"></stop>
</linearGradient>
<linearGradient x1="50" y1="12.352" x2="50" y2="53.263" gradientUnits="userSpaceOnUse" id="color-3_rLvjylyopRJT_gr3">
<stop offset="0" stop-color="#f9fbfc"></stop>
<stop offset="1" stop-color="#faf8fb"></stop>
</linearGradient>
<linearGradient x1="32" y1="7.505" x2="32" y2="43.825" gradientUnits="userSpaceOnUse" id="color-4_rLvjylyopRJT_gr4">
<stop offset="0" stop-color="#7ed957"></stop>
<stop offset="1" stop-color="#0097eb"></stop>
</linearGradient>
<linearGradient x1="28" y1="7.505" x2="28" y2="43.825" gradientUnits="userSpaceOnUse" id="color-5_rLvjylyopRJT_gr5">
<stop offset="0" stop-color="#7ed957"></stop>
<stop offset="1" stop-color="#0097eb"></stop>
</linearGradient>
<linearGradient x1="28" y1="7.505" x2="28" y2="43.825" gradientUnits="userSpaceOnUse" id="color-6_rLvjylyopRJT_gr6">
<stop offset="0" stop-color="#7ed957"></stop>
<stop offset="1" stop-color="#0097eb"></stop></linearGradient><linearGradient x1="28" y1="7.505" x2="28" y2="43.825" gradientUnits="userSpaceOnUse" id="color-7_rLvjylyopRJT_gr7"><stop offset="0" stop-color="#7ed957"></stop><stop offset="1" stop-color="#0097eb"></stop></linearGradient></defs><g fill="none" fill-rule="nonzero" stroke="none" stroke-width="1" stroke-linecap="butt" stroke-linejoin="miter" stroke-miterlimit="10" stroke-dasharray="" stroke-dashoffset="0" font-family="none" font-weight="none" font-size="none" text-anchor="none" style="mix-blend-mode: normal"><g transform="scale(4,4)"><ellipse cx="28" cy="41.5" rx="9" ry="3.5" fill="url(#color-1_rLvjylyopRJT_gr1)"></ellipse><ellipse cx="28" cy="29" rx="4" ry="5" fill="url(#color-2_rLvjylyopRJT_gr2)"></ellipse>
<!-- <path d="M48.22,54h-2.22v-44h2.22c3.192,0 5.78,2.588 5.78,5.78v32.44c0,3.192 -2.588,5.78 -5.78,5.78z" fill="#0097eb"></path>
<path d="M47.923,9h-31.846c-3.909,0 -7.077,3.168 -7.077,7.077v31.846c0,3.909 3.168,7.077 7.077,7.077h31.846c3.909,0 7.077,-3.168 7.077,-7.077v-31.846c0,-3.909 -3.168,-7.077 -7.077,-7.077zM53,16.077v3.923h-6v-9h0.923c2.804,0 5.077,2.273 5.077,5.077zM47,33h6v9h-6zM47,31v-9h6v9zM11,47.923v-31.846c0,-2.804 2.273,-5.077 5.077,-5.077h28.923v42h-28.923c-2.804,0 -5.077,-2.273 -5.077,-5.077zM47.923,53h-0.923v-9h6v3.923c0,2.804 -2.273,5.077 -5.077,5.077z" fill="#0097eb"></path>
<path d="M28,46c-7.72,0 -14,-6.28 -14,-14c0,-7.72 6.28,-14 14,-14c7.72,0 14,6.28 14,14c0,7.72 -6.28,14 -14,14zM28,20c-6.617,0 -12,5.383 -12,12c0,6.617 5.383,12 12,12c6.617,0 12,-5.383 12,-12c0,-6.617 -5.383,-12 -12,-12z" fill="#0097eb"></path>
<path d="M28,35c-2.757,0 -5,-2.691 -5,-6c0,-3.309 2.243,-6 5,-6c2.757,0 5,2.691 5,6c0,3.309 -2.243,6 -5,6zM28,25c-1.654,0 -3,1.794 -3,4c0,2.206 1.346,4 3,4c1.654,0 3,-1.794 3,-4c0,-2.206 -1.346,-4 -3,-4z" fill="#0097eb"></path>
<path d="M37.449,41.835c-3.74,-2.467 -7.525,-2.835 -9.449,-2.835c-1.924,0 -5.709,0.368 -9.449,2.835l-1.102,-1.67c4.177,-2.754 8.404,-3.165 10.551,-3.165c2.147,0 6.374,0.411 10.551,3.165z" fill="#0097eb"></path></g></g> -->



<path d="M48.22,54h-2.22v-44h2.22c3.192,0 5.78,2.588 5.78,5.78v32.44c0,3.192 -2.588,5.78 -5.78,5.78z" fill="url(#color-3_rLvjylyopRJT_gr3)"></path>
<path d="M47.923,9h-31.846c-3.909,0 -7.077,3.168 -7.077,7.077v31.846c0,3.909 3.168,7.077 7.077,7.077h31.846c3.909,0 7.077,-3.168 7.077,-7.077v-31.846c0,-3.909 -3.168,-7.077 -7.077,-7.077zM53,16.077v3.923h-6v-9h0.923c2.804,0 5.077,2.273 5.077,5.077zM47,33h6v9h-6zM47,31v-9h6v9zM11,47.923v-31.846c0,-2.804 2.273,-5.077 5.077,-5.077h28.923v42h-28.923c-2.804,0 -5.077,-2.273 -5.077,-5.077zM47.923,53h-0.923v-9h6v3.923c0,2.804 -2.273,5.077 -5.077,5.077z" fill="url(#color-4_rLvjylyopRJT_gr4)"></path>
<path d="M28,46c-7.72,0 -14,-6.28 -14,-14c0,-7.72 6.28,-14 14,-14c7.72,0 14,6.28 14,14c0,7.72 -6.28,14 -14,14zM28,20c-6.617,0 -12,5.383 -12,12c0,6.617 5.383,12 12,12c6.617,0 12,-5.383 12,-12c0,-6.617 -5.383,-12 -12,-12z" fill="url(#color-5_rLvjylyopRJT_gr5)"></path>
<path d="M28,35c-2.757,0 -5,-2.691 -5,-6c0,-3.309 2.243,-6 5,-6c2.757,0 5,2.691 5,6c0,3.309 -2.243,6 -5,6zM28,25c-1.654,0 -3,1.794 -3,4c0,2.206 1.346,4 3,4c1.654,0 3,-1.794 3,-4c0,-2.206 -1.346,-4 -3,-4z" fill="url(#color-6_rLvjylyopRJT_gr6)"></path>
<path d="M37.449,41.835c-3.74,-2.467 -7.525,-2.835 -9.449,-2.835c-1.924,0 -5.709,0.368 -9.449,2.835l-1.102,-1.67c4.177,-2.754 8.404,-3.165 10.551,-3.165c2.147,0 6.374,0.411 10.551,3.165z" fill="url(#color-7_rLvjylyopRJT_gr7)"></path></g></g>
</svg>