<svg version="1.1" id="Layer_1" xmlns="http://www.w3.org/2000/svg" xmlns:xlink="http://www.w3.org/1999/xlink" x="0px" y="0px"
	 width="100%" viewBox="-200 -50 900 606" enable-background="new 0 0 500 506" xml:space="preserve">
<path fill="none" opacity="1.000000" stroke="none" 
	d="
M1.000000,173.000000 
	C1.000000,115.347519 1.000000,58.195042 1.000000,1.021283 
	C167.611115,1.021283 334.222229,1.021283 500.916687,1.021283 
	C500.916687,169.569214 500.916687,338.138489 500.916687,506.853882 
	C334.333435,506.853882 167.666733,506.853882 1.000000,506.853882 
	C1.000000,395.777649 1.000000,284.638824 1.000000,173.000000 
M435.324554,196.065231 
	C434.544128,191.038895 433.763733,186.012558 433.037689,180.155685 
	C430.314880,170.542450 427.592041,160.929214 424.891113,150.537994 
	C420.587677,141.360458 416.284210,132.182922 411.720490,122.370995 
	C408.483002,117.578514 405.245514,112.786041 401.732117,107.366882 
	C397.516235,102.094902 393.356598,96.776764 389.074036,91.559471 
	C375.461151,74.975372 358.428619,62.620472 339.350128,51.732773 
	C329.562683,47.497238 319.775238,43.261703 309.315186,38.720898 
	C292.359711,32.856537 274.823181,30.141134 256.051300,29.017448 
	C240.854904,28.497200 225.824554,29.827635 210.227982,33.183777 
	C207.453674,34.035355 204.679352,34.886932 201.098709,35.768669 
	C185.878387,39.827385 171.312759,45.455341 157.189545,53.953243 
	C150.021484,58.838539 142.853439,63.723831 135.068558,68.881599 
	C131.024643,72.256897 126.980736,75.632202 122.352997,79.196732 
	C121.570808,80.132912 120.788628,81.069092 119.383537,82.253281 
	C114.560158,87.776352 109.736778,93.299431 104.340881,99.196205 
	C101.822510,102.754089 99.304146,106.311966 96.238022,110.259834 
	C93.137428,115.464722 90.036842,120.669601 86.409302,126.330513 
	C83.806046,131.832138 81.202789,137.333771 78.168823,143.378983 
	C75.970810,149.834793 73.772797,156.290588 71.166435,163.351883 
	C69.676758,170.216751 68.187080,177.081635 66.337830,184.643906 
	C65.574669,193.431015 64.811508,202.218109 63.928513,211.857590 
	C64.313820,219.906509 64.699127,227.955414 64.999428,236.872589 
	C67.282417,247.576004 69.565414,258.279419 71.882111,269.770813 
	C72.090355,270.574585 72.254517,271.392853 72.513153,272.180054 
	C88.204750,319.939545 118.333031,355.778412 162.298782,379.844971 
	C179.068039,389.024353 196.850220,395.867218 216.687042,398.708374 
	C227.455673,399.750427 238.224319,400.792450 249.910950,401.964142 
	C257.938385,401.288605 265.965790,400.613068 274.852753,400.031799 
	C284.963715,397.724640 295.074646,395.417511 305.938507,393.081696 
	C312.286621,390.678131 318.634766,388.274567 325.683411,385.745880 
	C332.473175,381.863159 339.262970,377.980438 346.791382,374.063599 
	C353.364624,369.434692 359.937866,364.805786 367.162445,360.070404 
	C372.910950,354.744263 378.659485,349.418121 384.910889,343.743530 
	C388.736328,339.197784 392.561768,334.652069 396.899963,329.745422 
	C400.334686,324.851532 403.769409,319.957642 407.762970,314.695160 
	C410.881622,308.445953 414.000275,302.196777 417.715576,295.678772 
	C419.334320,292.412537 420.953094,289.146271 422.974121,285.250702 
	C425.700134,276.187744 428.426147,267.124786 431.684753,257.519714 
	C432.666779,251.679123 433.648804,245.838516 434.893433,239.167847 
	C435.308716,231.461304 435.724030,223.754761 436.335175,215.291275 
	C435.969513,209.184006 435.603851,203.076752 435.324554,196.065231 
M112.638542,455.963135 
	C128.993484,458.305420 145.296188,461.154816 161.718185,462.846130 
	C177.854691,464.508026 194.113510,465.849030 210.316528,465.826324 
	C250.065857,465.770630 289.864838,467.616852 329.555786,463.989227 
	C349.808228,462.138184 370.094055,460.450256 390.244019,457.778046 
	C398.481903,456.685577 406.500671,453.466858 414.420410,450.655640 
	C418.189697,449.317657 418.067749,447.065460 414.405914,445.262238 
	C410.999054,443.584534 407.469849,441.706085 403.797852,441.092377 
	C386.366974,438.179230 368.944305,434.853912 351.375061,433.226074 
	C330.754639,431.315491 309.985901,430.181244 289.281647,430.183197 
	C253.701080,430.186523 218.097504,430.764526 182.549057,432.215302 
	C162.097046,433.049957 141.678757,435.651031 121.359840,438.326904 
	C113.633553,439.344391 106.093552,442.448547 98.730370,445.281830 
	C94.754204,446.811798 94.882607,448.888306 98.904266,450.858398 
	C103.029449,452.879211 107.502274,454.190399 112.638542,455.963135 
z"/>
<path fill="#CDF1F7" opacity="1.000000" stroke="none" 
	d="
M256.984253,29.064560 
	C274.823181,30.141134 292.359711,32.856537 309.613281,39.227409 
	C306.953461,41.648521 303.919312,43.456879 301.059265,45.507996 
	C298.273926,47.505566 293.924927,48.101746 293.647339,52.880249 
	C290.739410,52.098000 288.257019,50.891899 285.674347,50.612576 
	C278.695282,49.857769 271.542786,48.413174 264.700043,49.239025 
	C254.889648,50.423035 251.360748,58.435638 249.309784,67.151787 
	C247.550705,74.627464 251.927460,78.380005 257.448608,81.830605 
	C265.835632,87.072243 267.089447,91.058418 263.784271,101.280174 
	C259.361511,108.781967 256.432892,116.285469 259.085938,125.036140 
	C258.985901,127.779015 258.877075,130.399734 259.496704,132.835114 
	C264.854980,153.895767 276.865082,170.437790 294.337189,183.081711 
	C297.191803,185.147476 300.666687,186.356140 303.694336,188.264191 
	C303.018555,190.947830 301.368317,193.995605 302.276001,195.539337 
	C303.406006,197.461121 306.622192,199.094788 308.982330,199.157196 
	C313.736542,199.282898 318.635712,198.735062 323.269043,197.613708 
	C332.660492,195.340820 339.443787,198.157135 344.148987,206.565552 
	C347.571533,212.681870 352.230164,217.413345 359.299225,219.382095 
	C361.774475,220.071457 363.976837,221.490097 362.525757,224.973053 
	C359.305725,228.565414 355.465576,229.619095 351.462830,228.071869 
	C346.876495,226.299072 342.581512,223.772583 338.002930,221.288239 
	C336.319550,218.841095 334.554840,216.807632 333.309052,214.494675 
	C328.529755,205.621048 322.673920,202.649170 312.964203,205.822540 
	C306.751892,207.852890 301.025116,211.368790 294.937988,213.893585 
	C293.966278,212.765778 293.269562,211.707596 292.288086,211.199173 
	C279.872986,204.768188 269.446625,195.819611 260.124176,185.562881 
	C251.115005,175.650848 243.819138,164.635010 240.018768,151.386871 
	C241.489944,149.422974 242.805649,147.736084 244.420013,145.839172 
	C249.974869,135.221069 246.792633,126.102814 236.771515,123.012268 
	C234.897491,122.434311 232.936783,122.137489 231.012787,121.261604 
	C230.945099,114.329185 230.880737,107.846085 231.182068,101.281578 
	C235.875717,100.634254 240.754990,100.984283 241.877853,94.638611 
	C241.064560,91.992790 240.218079,89.713890 239.335968,87.448868 
	C237.457153,82.624626 235.559860,77.807571 233.772827,72.614548 
	C234.914093,69.491409 235.952667,66.741287 237.257812,63.790413 
	C240.713501,59.409664 243.902634,55.229671 247.377594,50.876293 
	C248.689911,49.404884 249.688553,48.083611 250.748398,46.813393 
	C253.417770,43.614189 252.915314,41.166870 249.445099,39.297340 
	C252.207626,35.771889 254.595932,32.418224 256.984253,29.064560 
z"/>
<path fill="#F7F7F7" opacity="1.000000" stroke="none" 
	d="
M112.230736,455.887665 
	C107.502274,454.190399 103.029449,452.879211 98.904266,450.858398 
	C94.882607,448.888306 94.754204,446.811798 98.730370,445.281830 
	C106.093552,442.448547 113.633553,439.344391 121.359840,438.326904 
	C141.678757,435.651031 162.097046,433.049957 182.549057,432.215302 
	C218.097504,430.764526 253.701080,430.186523 289.281647,430.183197 
	C309.985901,430.181244 330.754639,431.315491 351.375061,433.226074 
	C368.944305,434.853912 386.366974,438.179230 403.797852,441.092377 
	C407.469849,441.706085 410.999054,443.584534 414.405914,445.262238 
	C418.067749,447.065460 418.189697,449.317657 414.420410,450.655640 
	C406.500671,453.466858 398.481903,456.685577 390.244019,457.778046 
	C370.094055,460.450256 349.808228,462.138184 329.555786,463.989227 
	C289.864838,467.616852 250.065857,465.770630 210.316528,465.826324 
	C194.113510,465.849030 177.854691,464.508026 161.718185,462.846130 
	C145.296188,461.154816 128.993484,458.305420 112.230736,455.887665 
M141.619247,445.931366 
	C138.175140,450.156494 142.567001,451.060394 144.650833,451.592804 
	C151.835526,453.428436 159.120789,455.276978 166.475708,455.962921 
	C187.720871,457.944336 209.003693,460.440338 230.299454,460.735809 
	C259.021240,461.134277 287.788361,460.105133 316.497437,458.823883 
	C331.482483,458.155121 346.418884,455.877777 361.302612,453.793579 
	C365.444733,453.213562 370.236664,452.447144 373.310181,447.312347 
	C371.152985,446.104614 369.335480,444.403595 367.285095,444.048889 
	C352.816040,441.545898 338.371674,438.205963 323.781189,437.255371 
	C299.436127,435.669189 274.989288,435.602448 250.582062,435.034882 
	C241.757385,434.829681 232.899078,434.608246 224.098831,435.123596 
	C206.593597,436.148682 189.063522,437.201691 171.651199,439.186127 
	C161.723495,440.317566 152.007828,443.309570 141.619247,445.931366 
z"/>
<path fill="#81D3EC" opacity="1.000000" stroke="none" 
	d="
M384.408020,344.091980 
	C378.659485,349.418121 372.910950,354.744263 366.413757,359.967438 
	C361.602539,359.909576 357.526184,360.192444 353.479858,359.957520 
	C338.135284,359.066772 322.627899,359.101227 307.509033,356.714264 
	C291.441742,354.177551 275.498779,350.075867 259.955170,345.208801 
	C243.064194,339.919769 227.227539,331.854675 212.361816,322.120331 
	C205.766174,317.801361 199.375717,313.169006 193.064499,308.405762 
	C196.694427,305.691833 200.151978,303.251068 203.982819,300.879883 
	C205.927002,301.852722 207.581955,302.636871 209.056122,303.677216 
	C229.135559,317.847626 250.946548,328.576752 274.472412,335.534058 
	C283.250061,338.129852 292.506744,339.105896 301.774384,341.036377 
	C306.374329,347.126282 312.188080,348.667114 319.014893,346.697449 
	C321.351135,346.023376 323.547119,344.863098 326.162201,344.091736 
	C334.497589,347.994263 342.962952,347.196075 351.326324,346.683533 
	C362.365051,346.007050 373.381805,344.972565 384.408020,344.091980 
z"/>
<path fill="#5AB5E1" opacity="1.000000" stroke="none" 
	d="
M273.993225,399.937561 
	C265.965790,400.613068 257.938385,401.288605 249.402466,401.548950 
	C247.443634,400.192719 246.095001,399.010315 244.526611,398.349213 
	C233.070541,393.520355 221.246445,389.445038 210.150314,383.906250 
	C185.748459,371.725708 163.212082,356.692902 142.775833,338.449493 
	C125.988533,323.463501 110.459229,307.352966 98.041161,288.650940 
	C87.697838,273.073486 78.800781,256.537811 69.164368,240.485855 
	C68.144859,238.787628 66.460411,237.488571 65.084442,236.004333 
	C64.699127,227.955414 64.313820,219.906509 64.342850,211.472656 
	C65.817497,212.469650 67.301651,213.696091 67.874176,215.256943 
	C75.751640,236.733154 86.325493,256.824982 98.950912,275.845062 
	C112.328407,295.998169 128.366577,313.901794 146.024078,330.362366 
	C147.555954,331.790405 150.128983,332.101593 152.514755,333.043304 
	C154.241791,334.306610 155.672470,335.458221 157.095047,336.980042 
	C158.128906,338.798798 158.907471,340.579987 160.252930,341.645111 
	C176.435577,354.455994 193.596771,365.870880 212.129761,374.913239 
	C230.463394,383.858307 249.328293,391.655060 269.318939,396.363220 
	C271.061005,396.773529 272.443634,398.709991 273.993225,399.937561 
z"/>
<path fill="#8ADAEE" opacity="1.000000" stroke="none" 
	d="
M104.913391,98.822495 
	C109.736778,93.299431 114.560158,87.776352 119.984810,82.409698 
	C120.667610,84.699631 120.959969,86.849991 120.790993,88.963470 
	C120.291939,95.205185 118.730606,101.495148 119.170387,107.653000 
	C120.344193,124.088997 121.217781,140.678635 124.259872,156.821014 
	C130.288986,188.813629 143.364319,218.038910 162.819275,244.269409 
	C164.137695,246.046997 165.990662,247.428116 167.696167,249.390060 
	C167.907623,250.870209 168.017914,251.953918 168.085541,253.474609 
	C168.784409,259.257935 169.525925,264.604248 169.884216,269.960999 
	C167.628815,268.755707 165.366394,267.878723 163.960220,266.258545 
	C160.282532,262.021088 156.945801,257.484314 153.532181,253.021713 
	C137.963104,232.668228 126.560211,210.067261 118.551971,185.846680 
	C110.077805,160.216934 106.015350,133.820282 106.896912,106.727539 
	C106.981865,104.116806 105.609329,101.458641 104.913391,98.822495 
z"/>
<path fill="#78CCEA" opacity="1.000000" stroke="none" 
	d="
M192.892120,308.678894 
	C199.375717,313.169006 205.766174,317.801361 212.361816,322.120331 
	C227.227539,331.854675 243.064194,339.919769 259.955170,345.208801 
	C275.498779,350.075867 291.441742,354.177551 307.509033,356.714264 
	C322.627899,359.101227 338.135284,359.066772 353.479858,359.957520 
	C357.526184,360.192444 361.602539,359.909576 366.088104,360.020691 
	C359.937866,364.805786 353.364624,369.434692 346.226135,373.724396 
	C344.314270,372.923706 342.990326,372.150085 341.617462,372.050507 
	C331.232544,371.297241 320.677124,371.594238 310.482666,369.807617 
	C293.438904,366.820618 276.275085,363.652344 259.790619,358.534882 
	C232.026352,349.915771 207.003891,335.531342 183.979706,317.643188 
	C186.463898,314.665436 188.818771,312.001068 191.465836,309.242310 
	C192.136063,308.991577 192.514099,308.835236 192.892120,308.678894 
z"/>
<path fill="#56B2E0" opacity="1.000000" stroke="none" 
	d="
M65.041931,236.438461 
	C66.460411,237.488571 68.144859,238.787628 69.164368,240.485855 
	C78.800781,256.537811 87.697838,273.073486 98.041161,288.650940 
	C110.459229,307.352966 125.988533,323.463501 142.775833,338.449493 
	C163.212082,356.692902 185.748459,371.725708 210.150314,383.906250 
	C221.246445,389.445038 233.070541,393.520355 244.526611,398.349213 
	C246.095001,399.010315 247.443634,400.192719 248.943481,401.484131 
	C238.224319,400.792450 227.455673,399.750427 216.312515,398.125793 
	C215.271439,396.861176 214.718643,395.978210 213.921494,395.526764 
	C198.689667,386.900421 182.988083,379.012451 168.277908,369.577484 
	C146.250046,355.449066 126.458626,338.396210 109.805725,318.125122 
	C99.412735,305.473999 90.119308,291.922546 80.230797,278.852020 
	C77.630814,275.415405 74.652817,272.264801 71.848412,268.982849 
	C69.565414,258.279419 67.282417,247.576004 65.041931,236.438461 
z"/>
<path fill="#7BCEEA" opacity="1.000000" stroke="none" 
	d="
M86.936249,125.874481 
	C90.036842,120.669601 93.137428,115.464722 96.880066,110.266914 
	C98.014557,111.773338 98.832420,113.248299 98.946938,114.775978 
	C99.725945,125.167770 99.734154,135.656784 101.158005,145.953033 
	C104.721748,171.723480 112.390808,196.349182 123.904060,219.695114 
	C133.182465,238.509369 144.552063,256.013031 158.424850,271.780670 
	C161.763046,275.574829 165.968155,278.606232 169.733826,282.339539 
	C168.094604,286.123718 166.496170,289.556763 164.537231,292.983063 
	C163.341507,292.522003 162.352173,292.226990 161.693832,291.589874 
	C148.664566,278.980988 137.658554,264.697601 127.857841,249.526489 
	C114.922165,229.502548 104.927467,207.998993 98.659866,184.998856 
	C95.024002,171.656387 92.743141,157.938889 90.014320,144.357635 
	C88.784630,138.237518 87.950081,132.037979 86.936249,125.874481 
z"/>
<path fill="#E7F8FC" opacity="1.000000" stroke="none" 
	d="
M339.982819,52.028881 
	C358.428619,62.620472 375.461151,74.975372 389.074036,91.559471 
	C393.356598,96.776764 397.516235,102.094902 401.571350,107.913811 
	C400.264679,114.072617 399.367279,119.749146 397.927124,125.284454 
	C393.304108,143.053375 382.311096,155.542130 365.696991,163.112473 
	C354.478729,168.224152 342.823730,168.827240 330.983459,165.597961 
	C331.608826,161.656525 332.167297,158.095459 332.945282,154.186523 
	C333.929138,153.655563 334.752411,153.186798 335.449310,153.330612 
	C359.947998,158.386124 383.457153,140.031586 385.848328,115.865585 
	C388.477051,89.299110 366.280396,67.530724 340.439850,69.142143 
	C337.115570,69.349442 332.828003,69.558159 331.548248,74.147247 
	C326.830841,70.004517 322.393219,66.063782 318.107178,61.798576 
	C323.472382,59.316357 328.701263,57.194439 333.892120,54.983189 
	C335.965576,54.099922 337.955109,53.019539 339.982819,52.028881 
z"/>
<path fill="#70C5E7" opacity="1.000000" stroke="none" 
	d="
M183.850403,317.956635 
	C207.003891,335.531342 232.026352,349.915771 259.790619,358.534882 
	C276.275085,363.652344 293.438904,366.820618 310.482666,369.807617 
	C320.677124,371.594238 331.232544,371.297241 341.617462,372.050507 
	C342.990326,372.150085 344.314270,372.923706 345.856812,373.741455 
	C339.262970,377.980438 332.473175,381.863159 325.248901,385.442993 
	C322.351013,384.431244 319.920929,383.269379 317.419037,383.085876 
	C299.000153,381.734680 281.151459,377.689026 263.532196,372.332214 
	C239.363342,364.984161 216.806442,354.151306 195.576477,340.616547 
	C188.944901,336.388702 183.149826,330.848816 177.091629,325.602448 
	C179.424408,322.849152 181.637405,320.402893 183.850403,317.956635 
z"/>
<path fill="#4FACDE" opacity="1.000000" stroke="none" 
	d="
M71.865265,269.376831 
	C74.652817,272.264801 77.630814,275.415405 80.230797,278.852020 
	C90.119308,291.922546 99.412735,305.473999 109.805725,318.125122 
	C126.458626,338.396210 146.250046,355.449066 168.277908,369.577484 
	C182.988083,379.012451 198.689667,386.900421 213.921494,395.526764 
	C214.718643,395.978210 215.271439,396.861176 215.987885,397.925781 
	C196.850220,395.867218 179.068039,389.024353 162.298782,379.844971 
	C118.333031,355.778412 88.204750,319.939545 72.513153,272.180054 
	C72.254517,271.392853 72.090355,270.574585 71.865265,269.376831 
z"/>
<path fill="#70C5E7" opacity="1.000000" stroke="none" 
	d="
M71.574776,162.746399 
	C73.772797,156.290588 75.970810,149.834793 78.797462,143.203262 
	C80.274727,145.401947 81.573257,147.715591 81.903336,150.160004 
	C85.783554,178.895462 94.864456,206.054199 107.609093,231.913742 
	C118.067230,253.133820 131.950943,272.229034 147.624542,289.922729 
	C151.145660,293.897705 155.970856,296.717499 160.148651,300.436920 
	C158.914185,303.490814 157.726776,306.176910 156.336731,309.092896 
	C155.430344,310.571350 154.726624,311.819824 153.983505,312.718384 
	C149.918869,308.034943 145.620880,303.921143 141.920425,299.326080 
	C131.545319,286.442719 120.433563,274.004730 111.404190,260.217590 
	C94.738052,234.769608 83.124580,206.895706 75.981949,177.230713 
	C74.802650,172.332840 73.058098,167.571075 71.574776,162.746399 
z"/>
<path fill="#8FDEF0" opacity="1.000000" stroke="none" 
	d="
M167.595016,248.993637 
	C165.990662,247.428116 164.137695,246.046997 162.819275,244.269409 
	C143.364319,218.038910 130.288986,188.813629 124.259872,156.821014 
	C121.217781,140.678635 120.344193,124.088997 119.170387,107.653000 
	C118.730606,101.495148 120.291939,95.205185 120.790993,88.963470 
	C120.959969,86.849991 120.667610,84.699631 120.296265,82.285706 
	C120.788628,81.069092 121.570808,80.132912 122.646652,79.454147 
	C124.204659,81.188538 125.361496,82.776527 126.752029,84.123230 
	C132.677872,89.862289 136.575363,96.729286 136.655426,105.009308 
	C136.709015,110.549332 135.434723,116.102196 134.529755,121.971191 
	C133.427048,126.844498 132.549210,131.395905 131.453033,136.282501 
	C131.174332,139.744202 131.113983,142.870712 130.993744,146.408707 
	C131.552536,149.568451 132.171188,152.316742 132.819611,155.440353 
	C135.022781,160.161697 137.196198,164.507721 139.047943,169.057709 
	C138.714172,170.340134 138.456085,171.484894 138.726349,172.487213 
	C144.033401,192.170242 152.564117,210.409439 163.753647,227.400543 
	C165.386322,229.879745 167.862152,231.803680 170.008087,234.232574 
	C170.110916,234.645309 170.153503,234.810043 170.092361,235.291290 
	C169.932663,236.047546 169.876709,236.487274 169.570465,237.223358 
	C168.745132,241.344360 168.170074,245.168991 167.595016,248.993637 
z"/>
<path fill="#62BBE3" opacity="1.000000" stroke="none" 
	d="
M152.218384,332.931580 
	C150.128983,332.101593 147.555954,331.790405 146.024078,330.362366 
	C128.366577,313.901794 112.328407,295.998169 98.950912,275.845062 
	C86.325493,256.824982 75.751640,236.733154 67.874176,215.256943 
	C67.301651,213.696091 65.817497,212.469650 64.402763,211.046478 
	C64.811508,202.218109 65.574669,193.431015 66.914902,184.344360 
	C68.616066,185.722061 70.262108,187.251312 70.785889,189.098755 
	C78.540039,216.448410 89.458138,242.500580 105.617439,265.858185 
	C116.511696,281.605438 129.279419,296.076569 141.543625,310.840668 
	C144.296295,314.154419 148.444641,316.308807 151.961609,319.407440 
	C152.054626,324.189148 152.136505,328.560333 152.218384,332.931580 
z"/>
<path fill="#62BBE3" opacity="1.000000" stroke="none" 
	d="
M274.422974,399.984680 
	C272.443634,398.709991 271.061005,396.773529 269.318939,396.363220 
	C249.328293,391.655060 230.463394,383.858307 212.129761,374.913239 
	C193.596771,365.870880 176.435577,354.455994 160.252930,341.645111 
	C158.907471,340.579987 158.128906,338.798798 157.503510,337.056763 
	C161.923767,335.442566 165.927475,334.121826 170.069778,333.120880 
	C174.729599,337.033142 179.071060,340.883820 183.800781,344.176849 
	C218.222031,368.142120 256.146820,383.478149 297.578156,390.172760 
	C300.203644,390.596954 302.653870,392.105988 305.185608,393.110352 
	C295.074646,395.417511 284.963715,397.724640 274.422974,399.984680 
z"/>
<path fill="#74C9E9" opacity="1.000000" stroke="none" 
	d="
M160.195724,300.069092 
	C155.970856,296.717499 151.145660,293.897705 147.624542,289.922729 
	C131.950943,272.229034 118.067230,253.133820 107.609093,231.913742 
	C94.864456,206.054199 85.783554,178.895462 81.903336,150.160004 
	C81.573257,147.715591 80.274727,145.401947 79.012817,142.931458 
	C81.202789,137.333771 83.806046,131.832138 86.672775,126.102493 
	C87.950081,132.037979 88.784630,138.237518 90.014320,144.357635 
	C92.743141,157.938889 95.024002,171.656387 98.659866,184.998856 
	C104.927467,207.998993 114.922165,229.502548 127.857841,249.526489 
	C137.658554,264.697601 148.664566,278.980988 161.693832,291.589874 
	C162.352173,292.226990 163.341507,292.522003 164.474884,293.299683 
	C164.515045,294.427002 164.257080,295.230927 163.995132,296.013855 
	C163.991150,295.992828 164.033905,295.990479 163.758102,296.063995 
	C163.108490,296.773010 162.734680,297.408508 162.194000,298.302399 
	C161.416672,299.063568 160.806198,299.566345 160.195724,300.069092 
z"/>
<path fill="#67BFE5" opacity="1.000000" stroke="none" 
	d="
M305.562073,393.096008 
	C302.653870,392.105988 300.203644,390.596954 297.578156,390.172760 
	C256.146820,383.478149 218.222031,368.142120 183.800781,344.176849 
	C179.071060,340.883820 174.729599,337.033142 170.228729,332.839233 
	C172.489990,330.128357 174.730911,328.018951 176.971832,325.909515 
	C183.149826,330.848816 188.944901,336.388702 195.576477,340.616547 
	C216.806442,354.151306 239.363342,364.984161 263.532196,372.332214 
	C281.151459,377.689026 299.000153,381.734680 317.419037,383.085876 
	C319.920929,383.269379 322.351013,384.431244 324.898621,385.505554 
	C318.634766,388.274567 312.286621,390.678131 305.562073,393.096008 
z"/>
<path fill="#81D3EC" opacity="1.000000" stroke="none" 
	d="
M169.774597,281.988434 
	C165.968155,278.606232 161.763046,275.574829 158.424850,271.780670 
	C144.552063,256.013031 133.182465,238.509369 123.904060,219.695114 
	C112.390808,196.349182 104.721748,171.723480 101.158005,145.953033 
	C99.734154,135.656784 99.725945,125.167770 98.946938,114.775978 
	C98.832420,113.248299 98.014557,111.773338 97.153946,110.071915 
	C99.304146,106.311966 101.822510,102.754089 104.627136,99.009354 
	C105.609329,101.458641 106.981865,104.116806 106.896912,106.727539 
	C106.015350,133.820282 110.077805,160.216934 118.551971,185.846680 
	C126.560211,210.067261 137.963104,232.668228 153.532181,253.021713 
	C156.945801,257.484314 160.282532,262.021088 163.960220,266.258545 
	C165.366394,267.878723 167.628815,268.755707 170.102753,270.269836 
	C170.820084,272.389130 170.935699,274.209930 170.973709,276.401184 
	C170.522263,278.510559 170.148438,280.249481 169.774597,281.988434 
z"/>
<path fill="#67BFE5" opacity="1.000000" stroke="none" 
	d="
M151.950470,318.996948 
	C148.444641,316.308807 144.296295,314.154419 141.543625,310.840668 
	C129.279419,296.076569 116.511696,281.605438 105.617439,265.858185 
	C89.458138,242.500580 78.540039,216.448410 70.785889,189.098755 
	C70.262108,187.251312 68.616066,185.722061 67.094688,183.995667 
	C68.187080,177.081635 69.676758,170.216751 71.370605,163.049133 
	C73.058098,167.571075 74.802650,172.332840 75.981949,177.230713 
	C83.124580,206.895706 94.738052,234.769608 111.404190,260.217590 
	C120.433563,274.004730 131.545319,286.442719 141.920425,299.326080 
	C145.620880,303.921143 149.918869,308.034943 153.979004,313.071472 
	C153.326080,315.515289 152.638275,317.256134 151.950470,318.996948 
z"/>
<path fill="#9AE3F1" opacity="1.000000" stroke="none" 
	d="
M417.118927,295.947571 
	C414.000275,302.196777 410.881622,308.445953 407.032532,314.858521 
	C404.193848,315.294983 402.065125,315.461212 399.980865,315.859894 
	C391.277618,317.524475 382.587708,319.258850 373.886169,320.575073 
	C373.898987,316.904114 371.748444,315.367432 369.049500,315.947083 
	C364.648224,316.892334 360.417206,318.630371 355.782837,320.127258 
	C353.696350,322.826782 351.941406,325.432953 350.034180,328.284180 
	C349.768951,328.684906 349.656036,328.840607 349.165283,328.997803 
	C346.513245,328.332275 344.239014,327.665283 342.024658,326.649414 
	C344.080566,322.241577 346.076630,318.182617 348.330322,313.894836 
	C350.177673,310.779480 351.767395,307.892944 353.732117,304.993408 
	C357.644379,304.311646 361.171783,303.584259 364.721619,302.990967 
	C368.139648,302.419708 371.662659,302.302521 374.997437,301.437866 
	C387.954224,298.078247 400.854401,294.500549 413.985718,291.270630 
	C415.170135,293.007355 416.144531,294.477448 417.118927,295.947571 
z"/>
<path fill="#16773D" opacity="1.000000" stroke="none" 
	d="
M135.685394,68.609131 
	C142.853439,63.723831 150.021484,58.838539 157.815216,54.088470 
	C160.042694,55.395428 161.569168,56.690994 163.258514,57.718857 
	C174.499420,64.558273 185.775162,71.340439 197.018280,78.515823 
	C196.331741,81.259781 195.666473,83.629128 194.538391,85.999374 
	C177.740814,85.331276 161.406097,84.662277 144.906708,83.689468 
	C141.723175,78.460144 138.704285,73.534637 135.685394,68.609131 
z"/>
<path fill="#E42C55" opacity="1.000000" stroke="none" 
	d="
M434.630798,239.997925 
	C433.648804,245.838516 432.666779,251.679123 431.033264,257.766022 
	C424.653931,256.009705 418.985168,253.811783 413.182037,252.058350 
	C407.147369,250.234970 401.006683,248.740402 394.868591,247.287018 
	C388.369324,245.748108 381.818481,244.427002 375.170593,242.669586 
	C373.950134,239.647339 373.315369,236.335800 369.012604,237.551178 
	C367.599243,234.138138 366.243988,231.081100 364.953003,227.669098 
	C366.344025,224.876343 367.670807,222.438568 369.007690,220.386688 
	C370.433350,221.845200 371.707031,223.508881 373.288849,223.888412 
	C380.222626,225.552048 387.358398,226.445404 394.204498,228.382767 
	C401.057739,230.322128 407.512817,233.757065 414.411957,235.414642 
	C419.074890,236.534943 424.204468,235.712769 429.438232,235.855255 
	C431.377716,237.300018 433.004272,238.648972 434.630798,239.997925 
z"/>
<path fill="#974699" opacity="1.000000" stroke="none" 
	d="
M434.762115,239.582886 
	C433.004272,238.648972 431.377716,237.300018 429.257507,235.588776 
	C423.560425,230.458496 418.356995,225.690491 412.983398,220.631638 
	C407.363892,214.540390 401.770691,208.866531 396.518433,202.892929 
	C393.288025,199.218842 390.578735,195.086624 387.949463,191.037201 
	C389.417755,191.055191 390.572021,191.196106 391.698730,191.333664 
	C392.343567,190.391632 393.295105,189.001541 394.399292,187.388474 
	C396.317108,190.205811 397.748047,191.571030 401.058807,189.379654 
	C402.828552,188.208237 406.542908,188.494354 408.612244,189.582352 
	C412.256775,191.498535 415.485229,191.691833 419.239746,190.287048 
	C420.618866,192.035416 421.802429,193.523499 422.994080,195.382065 
	C427.381195,202.517776 431.760254,209.283005 436.139313,216.048218 
	C435.724030,223.754761 435.308716,231.461304 434.762115,239.582886 
z"/>
<path fill="#E1F5F9" opacity="1.000000" stroke="none" 
	d="
M330.916595,165.978333 
	C342.823730,168.827240 354.478729,168.224152 365.696991,163.112473 
	C382.311096,155.542130 393.304108,143.053375 397.927124,125.284454 
	C399.367279,119.749146 400.264679,114.072617 401.709290,108.227150 
	C405.245514,112.786041 408.483002,117.578514 411.481262,122.733307 
	C410.476837,124.218254 409.524261,125.256927 408.977173,126.477356 
	C405.709198,133.767456 402.578033,141.118881 399.307648,148.407867 
	C397.994629,151.334305 396.444672,154.154434 394.759033,157.223160 
	C393.984375,157.754044 393.453217,158.084717 392.565552,158.353729 
	C386.381714,161.489594 380.554413,164.687103 374.393463,167.905579 
	C372.686188,168.594025 371.312592,169.261505 369.561707,169.956604 
	C355.481201,172.718506 341.778015,175.452759 327.915588,177.855133 
	C324.501892,175.739914 321.247467,173.956573 318.405914,172.106064 
	C324.064758,172.440704 327.874298,169.975281 330.916595,165.978333 
z"/>
<path fill="#089282" opacity="1.000000" stroke="none" 
	d="
M135.376984,68.745361 
	C138.704285,73.534637 141.723175,78.460144 145.034454,83.999634 
	C153.852386,96.414467 162.377945,108.215317 170.475235,120.012238 
	C160.104401,120.987709 150.168976,122.055275 140.212555,122.864532 
	C138.437897,123.008774 136.576141,122.081711 134.754608,121.649307 
	C135.434723,116.102196 136.709015,110.549332 136.655426,105.009308 
	C136.575363,96.729286 132.677872,89.862289 126.752029,84.123230 
	C125.361496,82.776527 124.204659,81.188538 122.938568,79.359528 
	C126.980736,75.632202 131.024643,72.256897 135.376984,68.745361 
z"/>
<path fill="#C62035" opacity="1.000000" stroke="none" 
	d="
M197.039581,78.141220 
	C185.775162,71.340439 174.499420,64.558273 163.258514,57.718857 
	C161.569168,56.690994 160.042694,55.395428 158.160553,54.011505 
	C171.312759,45.455341 185.878387,39.827385 201.530899,36.189861 
	C201.666016,40.411907 201.368942,44.212765 201.052032,48.428329 
	C201.001541,51.864975 200.970886,54.886917 200.950134,57.923286 
	C200.960007,57.937714 200.958267,57.960609 200.745605,58.068962 
	C200.280975,58.394302 200.127975,58.666859 200.051697,59.361702 
	C199.705063,62.828590 199.380722,65.928757 198.894058,69.379288 
	C198.156113,72.422180 197.580475,75.114716 197.003647,77.891769 
	C197.002441,77.976288 197.039581,78.141220 197.039581,78.141220 
z"/>
<path fill="#E7294D" opacity="1.000000" stroke="none" 
	d="
M375.290161,243.010773 
	C381.818481,244.427002 388.369324,245.748108 394.868591,247.287018 
	C401.006683,248.740402 407.147369,250.234970 413.182037,252.058350 
	C418.985168,253.811783 424.653931,256.009705 430.766968,258.037048 
	C428.426147,267.124786 425.700134,276.187744 422.559570,285.318909 
	C418.469391,283.928528 414.793823,282.469940 410.969177,280.662170 
	C410.213379,277.874908 409.606598,275.436859 409.027527,272.614075 
	C405.617126,259.212250 399.701172,254.969727 387.577393,257.076050 
	C382.821472,257.222351 378.516235,256.706085 376.700256,252.189026 
	C375.576050,249.392593 375.717102,246.087509 375.290161,243.010773 
z"/>
<path fill="#8ADAEE" opacity="1.000000" stroke="none" 
	d="
M341.964783,326.998291 
	C344.239014,327.665283 346.513245,328.332275 349.189026,329.381927 
	C348.931763,333.401062 348.141632,337.572632 351.910980,339.523438 
	C353.939270,340.573181 357.643036,340.054474 359.760681,338.819702 
	C362.146393,337.428650 363.598297,334.436188 365.652039,331.982544 
	C366.224762,331.524841 366.601837,331.224854 367.027771,331.304077 
	C368.680786,332.305908 370.360321,333.606476 371.876709,333.438110 
	C380.069183,332.528320 388.221222,331.254578 396.387207,330.106323 
	C392.561768,334.652069 388.736328,339.197784 384.659454,343.917755 
	C373.381805,344.972565 362.365051,346.007050 351.326324,346.683533 
	C342.962952,347.196075 334.497589,347.994263 326.344666,343.816956 
	C327.516113,342.271851 328.860077,341.168304 330.510834,339.949554 
	C333.889557,336.224304 336.961456,332.614258 340.270752,328.845978 
	C340.993683,328.124603 341.479218,327.561432 341.964783,326.998291 
z"/>
<path fill="#BD4E2A" opacity="1.000000" stroke="none" 
	d="
M201.071869,48.013618 
	C201.368942,44.212765 201.666016,40.411907 201.934067,36.174782 
	C204.679352,34.886932 207.453674,34.035355 210.925079,33.356361 
	C224.105072,35.509003 236.587982,37.489063 249.070892,39.469124 
	C252.915314,41.166870 253.417770,43.614189 250.748398,46.813393 
	C249.688553,48.083611 248.689911,49.404884 247.024048,50.722084 
	C236.788483,49.827885 227.182770,49.000183 217.603409,47.935375 
	C215.454407,47.696495 213.397614,46.628033 210.435867,45.659409 
	C208.177551,46.227173 204.624710,47.120396 201.071869,48.013618 
M224.411560,45.483593 
	C224.411560,45.483593 224.523148,45.416725 224.411560,45.483593 
M205.517242,43.412113 
	C205.517242,43.412113 205.583817,43.523876 205.517242,43.412113 
z"/>
<path fill="#DAF5FA" opacity="1.000000" stroke="none" 
	d="
M339.666473,51.880829 
	C337.955109,53.019539 335.965576,54.099922 333.892120,54.983189 
	C328.701263,57.194439 323.472382,59.316357 317.753906,61.693558 
	C309.494354,59.044292 301.739594,56.175571 294.015564,53.201897 
	C294.046326,53.096947 294.027161,52.879066 294.027161,52.879066 
	C293.924927,48.101746 298.273926,47.505566 301.059265,45.507996 
	C303.919312,43.456879 306.953461,41.648521 309.949585,39.380043 
	C319.775238,43.261703 329.562683,47.497238 339.666473,51.880829 
z"/>
<path fill="#5B469C" opacity="1.000000" stroke="none" 
	d="
M424.869202,151.315979 
	C427.592041,160.929214 430.314880,170.542450 432.683716,180.600815 
	C430.889160,180.335327 429.448578,179.624710 427.592041,178.708893 
	C427.436920,178.841278 426.386047,179.738174 424.890472,181.014587 
	C423.901703,178.984604 423.158661,177.459091 422.307312,175.711227 
	C422.071381,176.986710 421.871735,178.066055 421.847900,178.194946 
	C420.855835,177.203461 419.777130,175.646027 418.290680,174.851013 
	C417.593781,174.478302 416.110474,175.575897 414.829529,175.667084 
	C413.104095,167.615417 411.532715,159.903839 410.371216,152.086639 
	C415.477173,151.759354 420.173187,151.537659 424.869202,151.315979 
z"/>
<path fill="#DAF5FA" opacity="1.000000" stroke="none" 
	d="
M424.880157,150.926971 
	C420.173187,151.537659 415.477173,151.759354 410.002045,152.067749 
	C404.482788,153.777298 399.742676,155.400116 395.002533,157.022949 
	C396.444672,154.154434 397.994629,151.334305 399.307648,148.407867 
	C402.578033,141.118881 405.709198,133.767456 408.977173,126.477356 
	C409.524261,125.256927 410.476837,124.218254 411.611420,123.050491 
	C416.284210,132.182922 420.587677,141.360458 424.880157,150.926971 
z"/>
<path fill="#8FDEF0" opacity="1.000000" stroke="none" 
	d="
M396.643585,329.925873 
	C388.221222,331.254578 380.069183,332.528320 371.876709,333.438110 
	C370.360321,333.606476 368.680786,332.305908 367.161652,331.007629 
	C368.514099,328.562012 369.781494,326.792084 371.331848,324.855957 
	C372.134247,323.492218 372.653687,322.294678 373.353027,321.064392 
	C373.532867,321.031647 373.892914,320.967651 373.892914,320.967651 
	C382.587708,319.258850 391.277618,317.524475 399.980865,315.859894 
	C402.065125,315.461212 404.193848,315.294983 406.753113,315.042786 
	C403.769409,319.957642 400.334686,324.851532 396.643585,329.925873 
z"/>
<path fill="#6E459B" opacity="1.000000" stroke="none" 
	d="
M414.983582,176.007141 
	C416.110474,175.575897 417.593781,174.478302 418.290680,174.851013 
	C419.777130,175.646027 420.855835,177.203461 421.847900,178.194946 
	C421.871735,178.066055 422.071381,176.986710 422.307312,175.711227 
	C423.158661,177.459091 423.901703,178.984604 424.890472,181.014587 
	C426.386047,179.738174 427.436920,178.841278 427.592041,178.708893 
	C429.448578,179.624710 430.889160,180.335327 432.656525,181.016083 
	C433.763733,186.012558 434.544128,191.038895 434.956940,196.433746 
	C430.388641,198.362518 426.619049,197.129501 422.985992,195.011597 
	C421.802429,193.523499 420.618866,192.035416 419.225464,189.899445 
	C417.671600,184.836746 416.327576,180.421951 414.983582,176.007141 
z"/>
<path fill="#C2EFF7" opacity="1.000000" stroke="none" 
	d="
M249.445099,39.297340 
	C236.587982,37.489063 224.105072,35.509003 211.293610,33.295662 
	C225.824554,29.827635 240.854904,28.497200 256.517761,29.041004 
	C254.595932,32.418224 252.207626,35.771889 249.445099,39.297340 
z"/>
<path fill="#7E4699" opacity="1.000000" stroke="none" 
	d="
M422.994080,195.382080 
	C426.619049,197.129501 430.388641,198.362518 434.913757,196.885864 
	C435.603851,203.076752 435.969513,209.184006 436.237244,215.669739 
	C431.760254,209.283005 427.381195,202.517776 422.994080,195.382080 
z"/>
<path fill="#C62035" opacity="1.000000" stroke="none" 
	d="
M411.118225,281.011322 
	C414.793823,282.469940 418.469391,283.928528 422.358398,285.633606 
	C420.953094,289.146271 419.334320,292.412537 417.417236,295.813171 
	C416.144531,294.477448 415.170135,293.007355 413.930878,290.919922 
	C412.816711,287.205505 411.967468,284.108398 411.118225,281.011322 
z"/>
<path fill="#E65F2D" opacity="1.000000" stroke="none" 
	d="
M328.074799,178.187012 
	C341.778015,175.452759 355.481201,172.718506 369.699493,170.275253 
	C374.491333,176.056686 378.768097,181.547089 383.040344,187.419403 
	C380.024200,195.201279 377.012604,202.601242 373.727203,210.204163 
	C371.968109,213.605011 370.482849,216.802902 368.997559,220.000793 
	C367.670807,222.438568 366.344025,224.876343 364.727325,227.664215 
	C364.437378,228.014297 363.983795,228.021774 363.855225,227.701904 
	C363.424347,226.522568 363.121979,225.663086 362.819611,224.803619 
	C363.976837,221.490097 361.774475,220.071457 359.299225,219.382095 
	C352.230164,217.413345 347.571533,212.681870 344.148987,206.565552 
	C339.443787,198.157135 332.660492,195.340820 323.269043,197.613708 
	C318.635712,198.735062 313.736542,199.282898 308.982330,199.157196 
	C306.622192,199.094788 303.406006,197.461121 302.276001,195.539337 
	C301.368317,193.995605 303.018555,190.947830 304.029785,188.157593 
	C312.375458,184.560822 320.225128,181.373932 328.074799,178.187012 
z"/>
<path fill="#7BBE59" opacity="1.000000" stroke="none" 
	d="
M264.051544,101.066200 
	C267.089447,91.058418 265.835632,87.072243 257.448608,81.830605 
	C251.927460,78.380005 247.550705,74.627464 249.309784,67.151787 
	C251.360748,58.435638 254.889648,50.423035 264.700043,49.239025 
	C271.542786,48.413174 278.695282,49.857769 285.674347,50.612576 
	C288.257019,50.891899 290.739410,52.098000 293.647339,52.880249 
	C294.027161,52.879066 294.046326,53.096947 294.028748,53.607018 
	C292.941742,60.395237 291.872345,66.673393 290.560455,73.224487 
	C289.807861,75.992683 289.297791,78.487946 288.547974,81.227509 
	C288.112488,82.612282 287.916779,83.752747 287.485229,85.156952 
	C286.512878,87.948395 285.776398,90.476112 284.849518,93.317070 
	C283.379059,97.149963 282.098969,100.669617 280.405884,104.174461 
	C274.679108,103.128510 269.365326,102.097351 264.051544,101.066200 
z"/>
<path fill="#C2EFF7" opacity="1.000000" stroke="none" 
	d="
M239.863312,151.663879 
	C243.819138,164.635010 251.115005,175.650848 260.124176,185.562881 
	C269.446625,195.819611 279.872986,204.768188 292.288086,211.199173 
	C293.269562,211.707596 293.966278,212.765778 294.787354,214.181366 
	C292.472015,217.158478 290.164673,219.522675 287.557251,222.035919 
	C285.817688,224.123428 284.378235,226.061890 282.592285,227.961578 
	C280.207886,226.523483 278.094482,225.221512 276.145020,223.708267 
	C267.050934,216.649109 257.404541,210.162018 249.086914,202.276993 
	C238.448959,192.192307 231.205078,179.371658 224.297012,166.506973 
	C223.537994,165.093491 223.354675,163.370865 223.103821,161.499664 
	C228.823303,158.026443 234.343307,154.845169 239.863312,151.663879 
z"/>
<path fill="#DAF5FA" opacity="1.000000" stroke="none" 
	d="
M327.915588,177.855133 
	C320.225128,181.373932 312.375458,184.560822 304.190338,187.854340 
	C300.666687,186.356140 297.191803,185.147476 294.337189,183.081711 
	C276.865082,170.437790 264.854980,153.895767 259.496704,132.835114 
	C258.877075,130.399734 258.985901,127.779015 259.354462,125.216408 
	C262.963715,127.149879 265.975525,129.111176 269.319580,131.282532 
	C271.175201,131.376175 272.698547,131.259781 274.346008,131.253967 
	C274.725220,131.375244 274.902039,131.262726 275.368103,131.043243 
	C277.146271,130.700668 278.556854,130.341904 280.331909,130.019592 
	C281.654968,131.106400 282.903046,132.010864 283.519287,133.233719 
	C285.580200,137.323654 286.801758,141.983734 289.478607,145.582031 
	C293.625275,151.156158 298.548950,156.190231 303.445007,161.155670 
	C306.753632,164.511185 310.581055,167.355148 314.432526,170.594788 
	C315.790100,171.232178 316.891541,171.702713 317.993011,172.173248 
	C321.247467,173.956573 324.501892,175.739914 327.915588,177.855133 
z"/>
<path fill="#207133" opacity="1.000000" stroke="none" 
	d="
M231.016083,121.710922 
	C232.936783,122.137489 234.897491,122.434311 236.771515,123.012268 
	C246.792633,126.102814 249.974869,135.221069 243.944229,145.824554 
	C226.814758,146.004074 210.459747,145.988235 193.798767,145.825836 
	C189.392151,141.459412 185.291504,137.239517 181.144562,132.763840 
	C181.049652,132.341690 181.001053,132.175339 180.971924,131.759766 
	C180.991364,131.510529 180.986755,131.010559 181.346100,130.949738 
	C183.812195,125.586052 185.918961,120.283165 188.490067,114.987335 
	C194.176407,115.326172 199.398438,115.657951 204.751190,116.345711 
	C207.445236,118.149055 209.888229,120.499329 212.596329,120.860191 
	C218.666260,121.669014 224.868011,121.488548 231.016083,121.710922 
z"/>
<path fill="#1B5C2C" opacity="1.000000" stroke="none" 
	d="
M204.620453,115.989731 
	C199.398438,115.657951 194.176407,115.326172 188.530273,114.609695 
	C190.404510,104.816162 192.702866,95.407318 195.001221,85.998474 
	C195.666473,83.629128 196.331741,81.259781 197.018280,78.515823 
	C197.039581,78.141220 197.002441,77.976288 197.359497,77.985054 
	C212.420532,83.666481 227.124527,89.339149 241.828506,95.011818 
	C240.754990,100.984283 235.875717,100.634254 230.805298,101.251106 
	C226.441040,101.527885 222.807419,101.636734 219.199875,102.002754 
	C210.371475,102.898491 205.930069,107.219643 204.620453,115.989731 
z"/>
<path fill="#F57F2C" opacity="1.000000" stroke="none" 
	d="
M287.857330,221.886871 
	C290.164673,219.522675 292.472015,217.158478 294.929993,214.506500 
	C301.025116,211.368790 306.751892,207.852890 312.964203,205.822540 
	C322.673920,202.649170 328.529755,205.621048 333.309052,214.494675 
	C334.554840,216.807632 336.319550,218.841095 337.930847,221.694901 
	C336.644623,223.191727 335.227325,224.761703 333.909607,224.682144 
	C321.791748,223.950470 309.696228,222.855484 297.580994,222.069458 
	C295.362762,221.925537 293.084991,222.700012 290.517761,223.010757 
	C289.419678,222.609604 288.638519,222.248230 287.857330,221.886871 
z"/>
<path fill="#237938" opacity="1.000000" stroke="none" 
	d="
M194.104721,145.972397 
	C210.459747,145.988235 226.814758,146.004074 243.645569,146.034546 
	C242.805649,147.736084 241.489944,149.422974 240.018768,151.386887 
	C234.343307,154.845169 228.823303,158.026443 222.757904,161.609955 
	C219.164413,163.157318 216.116348,164.302475 212.876587,165.140930 
	C206.491516,158.546951 200.298126,152.259674 194.104721,145.972397 
z"/>
<path fill="#CD6F2D" opacity="1.000000" stroke="none" 
	d="
M241.877853,94.638611 
	C227.124527,89.339149 212.420532,83.666481 197.360703,77.900528 
	C197.580475,75.114716 198.156113,72.422180 199.179367,69.595352 
	C201.189636,70.276108 202.716461,71.711998 204.320786,71.804573 
	C214.094131,72.368584 223.885071,72.627121 233.670151,72.987579 
	C235.559860,77.807571 237.457153,82.624626 239.335968,87.448868 
	C240.218079,89.713890 241.064560,91.992790 241.877853,94.638611 
z"/>
<path fill="#C2572A" opacity="1.000000" stroke="none" 
	d="
M201.052032,48.428326 
	C204.624710,47.120396 208.177551,46.227173 210.435867,45.659409 
	C213.397614,46.628033 215.454407,47.696495 217.603409,47.935375 
	C227.182770,49.000183 236.788483,49.827885 246.738220,50.895470 
	C243.902634,55.229671 240.713501,59.409664 236.928101,63.649231 
	C232.028503,61.516376 227.932907,59.587620 222.702835,61.733078 
	C220.810745,62.509232 217.820496,60.501621 215.301682,59.885567 
	C212.569824,59.217403 208.582230,57.278275 207.298950,58.387802 
	C204.369110,60.920982 202.939011,59.189762 200.940247,57.908855 
	C200.970886,54.886917 201.001541,51.864975 201.052032,48.428326 
M235.517258,60.411572 
	C235.517258,60.411572 235.584412,60.524078 235.517258,60.411572 
z"/>
<path fill="#B7ECF6" opacity="1.000000" stroke="none" 
	d="
M204.751190,116.345703 
	C205.930069,107.219643 210.371475,102.898491 219.199875,102.002754 
	C222.807419,101.636734 226.441040,101.527885 230.439575,101.332512 
	C230.880737,107.846085 230.945099,114.329185 231.012787,121.261604 
	C224.868011,121.488548 218.666260,121.669014 212.596329,120.860191 
	C209.888229,120.499329 207.445236,118.149055 204.751190,116.345703 
z"/>
<path fill="#C8632B" opacity="1.000000" stroke="none" 
	d="
M200.950119,57.923286 
	C202.939011,59.189762 204.369110,60.920982 207.298950,58.387802 
	C208.582230,57.278275 212.569824,59.217403 215.301682,59.885567 
	C217.820496,60.501621 220.810745,62.509232 222.702835,61.733078 
	C227.932907,59.587620 232.028503,61.516376 236.661530,63.849987 
	C235.952667,66.741287 234.914093,69.491409 233.772827,72.614548 
	C223.885071,72.627121 214.094131,72.368584 204.320786,71.804573 
	C202.716461,71.711998 201.189636,70.276108 199.341690,69.244995 
	C199.380722,65.928757 199.705063,62.828590 200.257294,59.246086 
	C200.741364,58.554100 200.899078,58.286385 200.958267,57.960609 
	C200.958267,57.960609 200.960007,57.937714 200.950119,57.923286 
z"/>
<path fill="#1B7E40" opacity="1.000000" stroke="none" 
	d="
M268.987305,131.072464 
	C265.975525,129.111176 262.963715,127.149879 259.683411,125.008324 
	C256.432892,116.285469 259.361511,108.781967 263.784271,101.280174 
	C269.365326,102.097351 274.679108,103.128510 280.460632,104.364975 
	C280.928375,104.570290 281.030609,104.956558 280.716309,105.128952 
	C276.597076,113.891724 272.792206,122.482094 268.987305,131.072464 
z"/>
<path fill="#F59223" opacity="1.000000" stroke="none" 
	d="
M290.834686,223.050537 
	C293.084991,222.700012 295.362762,221.925537 297.580994,222.069458 
	C309.696228,222.855484 321.791748,223.950470 333.909607,224.682144 
	C335.227325,224.761703 336.644623,223.191727 338.087830,221.980194 
	C342.581512,223.772583 346.876495,226.299072 351.462830,228.071869 
	C355.465576,229.619095 359.305725,228.565414 362.525757,224.973053 
	C363.121979,225.663086 363.424347,226.522568 363.720551,228.005875 
	C362.500031,230.431824 361.285645,232.233932 359.702728,233.874695 
	C340.024506,229.865372 320.424377,229.661316 300.508850,229.011200 
	C297.052338,226.996918 293.943512,225.023727 290.834686,223.050537 
z"/>
<path fill="#F2F2F2" opacity="1.000000" stroke="none" 
	d="
M141.907959,445.697571 
	C152.007828,443.309570 161.723495,440.317566 171.651199,439.186127 
	C189.063522,437.201691 206.593597,436.148682 224.098831,435.123596 
	C232.899078,434.608246 241.757385,434.829681 250.582062,435.034882 
	C274.989288,435.602448 299.436127,435.669189 323.781189,437.255371 
	C338.371674,438.205963 352.816040,441.545898 367.285095,444.048889 
	C369.335480,444.403595 371.152985,446.104614 373.310181,447.312347 
	C370.236664,452.447144 365.444733,453.213562 361.302612,453.793579 
	C346.418884,455.877777 331.482483,458.155121 316.497437,458.823883 
	C287.788361,460.105133 259.021240,461.134277 230.299454,460.735809 
	C209.003693,460.440338 187.720871,457.944336 166.475708,455.962921 
	C159.120789,455.276978 151.835526,453.428436 144.650833,451.592804 
	C142.567001,451.060394 138.175140,450.156494 141.907959,445.697571 
M254.500000,438.998779 
	C237.166016,439.076263 219.789841,438.158081 202.569489,441.027771 
	C195.406342,442.221497 188.240692,443.434540 181.139664,444.938568 
	C179.649765,445.254120 178.438553,446.885468 177.098923,447.910492 
	C178.380920,448.979706 179.535172,450.746246 180.965073,451.008240 
	C192.727539,453.163574 204.541214,456.681610 216.339355,456.681580 
	C247.497162,456.681488 278.747223,459.175354 309.825531,454.960846 
	C317.018799,453.985382 324.182159,452.716339 331.292450,451.256622 
	C332.967712,450.912720 334.372070,449.249084 335.901062,448.192596 
	C334.336823,446.992920 332.900482,444.998108 331.187653,444.722687 
	C320.108643,442.940979 309.011169,440.927612 297.839264,440.157623 
	C283.766418,439.187744 269.616608,439.334045 254.500000,438.998779 
z"/>
<path fill="#8ADAEE" opacity="1.000000" stroke="none" 
	d="
M301.544983,340.820526 
	C292.506744,339.105896 283.250061,338.129852 274.472412,335.534058 
	C250.946548,328.576752 229.135559,317.847626 209.056122,303.677216 
	C207.581955,302.636871 205.927002,301.852722 204.200775,300.604980 
	C208.364426,297.422852 212.683411,294.585236 217.307800,291.693939 
	C218.332504,291.230621 219.051804,290.820953 219.910004,290.763580 
	C221.796600,292.607941 223.385315,294.356720 225.316422,295.552643 
	C246.194092,308.482330 268.356323,318.450287 292.303009,324.216553 
	C294.935608,324.850494 297.399170,325.526398 297.728729,329.227600 
	C298.264648,331.062439 298.672913,332.531799 299.062805,334.367737 
	C299.877930,336.763031 300.711456,338.791779 301.544983,340.820526 
z"/>
<path fill="#DD3464" opacity="1.000000" stroke="none" 
	d="
M217.002380,291.747589 
	C212.683411,294.585236 208.364426,297.422852 203.827499,300.535400 
	C200.151978,303.251068 196.694427,305.691833 193.064499,308.405762 
	C192.514099,308.835236 192.136063,308.991577 191.285614,308.881287 
	C189.523712,308.137329 188.214798,307.201477 186.947876,307.255219 
	C176.807236,307.685486 166.674515,308.302856 156.539383,308.862976 
	C157.726776,306.176910 158.914185,303.490814 160.148651,300.436920 
	C160.806198,299.566345 161.416672,299.063568 162.479675,298.233521 
	C163.299454,297.267639 163.666687,296.629059 164.033905,295.990479 
	C164.033905,295.990479 163.991150,295.992828 164.349182,296.024536 
	C170.500397,291.083618 176.293594,286.110962 182.382721,280.980316 
	C188.408051,275.148560 194.137482,269.474762 200.035889,264.117554 
	C202.496048,267.625031 204.787201,270.815918 207.162659,274.227509 
	C207.434830,274.720001 207.688217,274.899078 208.003784,274.991760 
	C208.000427,274.998016 208.017792,274.988525 208.146698,275.308777 
	C211.184540,281.001862 214.093460,286.374725 217.002380,291.747589 
z"/>
<path fill="#F7961C" opacity="1.000000" stroke="none" 
	d="
M301.774384,341.036377 
	C300.711456,338.791779 299.877930,336.763031 299.491180,334.367218 
	C301.724701,334.203674 303.541901,334.263794 305.293030,334.635223 
	C313.606567,336.398560 321.902100,338.246735 330.204041,340.064758 
	C328.860077,341.168304 327.516113,342.271851 325.989685,343.650208 
	C323.547119,344.863098 321.351135,346.023376 319.014893,346.697449 
	C312.188080,348.667114 306.374329,347.126282 301.774384,341.036377 
z"/>
<path fill="#E0305C" opacity="1.000000" stroke="none" 
	d="
M156.336731,309.092896 
	C166.674515,308.302856 176.807236,307.685486 186.947876,307.255219 
	C188.214798,307.201477 189.523712,308.137329 190.993408,308.975708 
	C188.818771,312.001068 186.463898,314.665436 183.979721,317.643188 
	C181.637405,320.402893 179.424408,322.849152 177.091629,325.602448 
	C174.730911,328.018951 172.489990,330.128357 170.090118,332.519470 
	C165.927475,334.121826 161.923767,335.442566 157.511597,336.686523 
	C155.672470,335.458221 154.241791,334.306610 152.514755,333.043274 
	C152.136505,328.560333 152.054626,324.189148 151.961609,319.407440 
	C152.638275,317.256134 153.326080,315.515289 154.018402,313.421387 
	C154.726624,311.819824 155.430344,310.571350 156.336731,309.092896 
z"/>
<path fill="#6E459B" opacity="1.000000" stroke="none" 
	d="
M199.866898,263.800995 
	C194.137482,269.474762 188.408051,275.148560 182.222992,280.656616 
	C180.971924,278.989319 180.176483,277.487732 179.258545,275.754883 
	C179.064743,276.996307 178.902054,278.038452 178.797272,278.709656 
	C177.755371,278.121368 176.810394,277.438385 175.755249,277.116699 
	C175.541260,277.051453 174.911530,278.349854 174.568054,278.875000 
	C173.475296,277.991211 172.263306,277.010986 171.051315,276.030762 
	C170.935699,274.209930 170.820084,272.389130 170.485947,270.259460 
	C169.525925,264.604248 168.784409,259.257935 168.360291,253.626282 
	C169.300537,254.276703 169.923401,255.212418 170.561279,256.170685 
	C170.888565,255.418182 171.203308,254.694504 171.686951,253.582504 
	C171.979263,255.062744 172.170242,256.029846 172.506607,257.733215 
	C172.926559,255.940918 173.154770,254.966965 173.382980,253.992996 
	C173.545593,254.014221 173.708221,254.035446 173.870834,254.056671 
	C173.955612,255.357712 174.040375,256.658752 174.110184,257.730103 
	C176.129898,256.964691 177.997421,256.256958 179.858414,255.551697 
	C179.933945,256.015778 180.106552,257.076538 180.347488,258.557098 
	C181.544662,257.061340 182.461716,255.915573 183.547226,254.559326 
	C186.727539,259.420013 190.937637,261.807465 197.059479,260.157043 
	C198.163910,261.184723 198.989334,262.078033 199.848572,263.177338 
	C199.882401,263.383331 199.866898,263.800995 199.866898,263.800995 
z"/>
<path fill="#7E4699" opacity="1.000000" stroke="none" 
	d="
M196.780457,260.022705 
	C190.937637,261.807465 186.727539,259.420013 183.547226,254.559326 
	C182.461716,255.915573 181.544662,257.061340 180.347488,258.557098 
	C180.106552,257.076538 179.933945,256.015778 179.858414,255.551697 
	C177.997421,256.256958 176.129898,256.964691 174.110184,257.730103 
	C174.040375,256.658752 173.955612,255.357712 173.870834,254.056671 
	C173.708221,254.035446 173.545593,254.014221 173.382980,253.992996 
	C173.154770,254.966965 172.926559,255.940918 172.506607,257.733215 
	C172.170242,256.029846 171.979263,255.062744 171.686951,253.582504 
	C171.203308,254.694504 170.888565,255.418182 170.561279,256.170685 
	C169.923401,255.212418 169.300537,254.276703 168.402939,253.189301 
	C168.017914,251.953918 167.907623,250.870209 167.696167,249.390060 
	C168.170074,245.168991 168.745132,241.344360 169.900970,237.361130 
	C180.428253,243.449097 189.465958,250.742966 196.780457,260.022705 
z"/>
<path fill="#5B469C" opacity="1.000000" stroke="none" 
	d="
M170.973709,276.401184 
	C172.263306,277.010986 173.475296,277.991211 174.568054,278.875000 
	C174.911530,278.349854 175.541260,277.051453 175.755249,277.116699 
	C176.810394,277.438385 177.755371,278.121368 178.797272,278.709656 
	C178.902054,278.038452 179.064743,276.996307 179.258545,275.754883 
	C180.176483,277.487732 180.971924,278.989319 181.927078,280.814606 
	C176.293594,286.110962 170.500397,291.083618 164.353149,296.045593 
	C164.257080,295.230927 164.515045,294.427002 164.835373,293.306427 
	C166.496170,289.556763 168.094604,286.123718 169.733826,282.339539 
	C170.148438,280.249481 170.522263,278.510559 170.973709,276.401184 
z"/>
<path fill="#ECFAFD" opacity="1.000000" stroke="none" 
	d="
M331.828064,74.349251 
	C332.828003,69.558159 337.115570,69.349442 340.439850,69.142143 
	C366.280396,67.530724 388.477051,89.299110 385.848328,115.865585 
	C383.457153,140.031586 359.947998,158.386124 335.449310,153.330612 
	C334.752411,153.186798 333.929138,153.655563 332.700500,153.933197 
	C330.011963,152.759598 327.787720,151.491470 325.210022,150.081848 
	C322.571930,147.643692 320.287292,145.347015 318.311157,142.877380 
	C320.751862,141.804276 322.884064,140.904129 325.400482,140.007111 
	C326.881348,140.351715 328.033936,140.572815 329.066132,141.052841 
	C342.261322,147.189209 359.864288,144.219666 369.909729,131.824158 
	C381.666565,117.316948 377.433502,92.451202 361.029297,83.470093 
	C352.432190,78.763268 343.462982,78.122322 333.926392,79.720924 
	C333.396362,78.642349 333.034485,77.846062 332.649536,76.763168 
	C332.360321,75.767456 332.094177,75.058357 331.828064,74.349251 
z"/>
<path fill="#089282" opacity="1.000000" stroke="none" 
	d="
M331.548248,74.147247 
	C332.094177,75.058357 332.360321,75.767456 332.323853,76.941704 
	C326.046387,76.782578 320.069458,76.176880 314.097046,75.529434 
	C306.330475,74.687485 298.567505,73.812378 290.802979,72.951546 
	C291.872345,66.673393 292.941742,60.395237 293.997986,53.711967 
	C301.739594,56.175571 309.494354,59.044292 317.602356,62.018028 
	C322.393219,66.063782 326.830841,70.004517 331.548248,74.147247 
z"/>
<path fill="#C62035" opacity="1.000000" stroke="none" 
	d="
M325.563446,150.223358 
	C327.787720,151.491470 330.011963,152.759598 332.481018,154.281036 
	C332.167297,158.095459 331.608826,161.656525 330.983459,165.597961 
	C327.874298,169.975281 324.064758,172.440704 318.405914,172.106064 
	C316.891541,171.702713 315.790100,171.232178 314.723541,170.380310 
	C315.950531,167.837952 317.151001,165.681503 318.332916,163.514938 
	C320.748383,159.087296 323.153839,154.654205 325.563446,150.223358 
z"/>
<path fill="#96E2F1" opacity="1.000000" stroke="none" 
	d="
M169.947845,233.984558 
	C167.862152,231.803680 165.386322,229.879745 163.753647,227.400543 
	C152.564117,210.409439 144.033401,192.170242 138.726349,172.487213 
	C138.456085,171.484894 138.714172,170.340134 139.303528,169.257904 
	C145.296402,174.143570 150.712021,179.033020 156.281326,184.210175 
	C160.947128,189.007355 165.459259,193.516846 170.030182,198.312256 
	C170.426453,199.053253 170.763931,199.508316 171.148575,200.214478 
	C171.444611,200.687653 171.693466,200.909714 172.012726,201.510605 
	C172.711899,208.598511 173.340637,215.307617 173.730881,222.289612 
	C172.579559,226.270340 171.666763,229.978195 170.753479,233.709045 
	C170.753006,233.732071 170.798004,233.741898 170.576355,233.770691 
	C170.354721,233.799469 169.947845,233.984558 169.947845,233.984558 
z"/>
<path fill="#1FA3A4" opacity="1.000000" stroke="none" 
	d="
M156.127640,183.922485 
	C150.712021,179.033020 145.296402,174.143570 139.625198,169.053925 
	C137.196198,164.507721 135.022781,160.161697 133.250427,155.420776 
	C144.176132,154.377914 154.697113,153.654541 165.228348,153.142548 
	C167.467834,153.033661 169.744766,153.694855 171.968048,154.360428 
	C170.589996,157.816162 169.248322,160.912735 167.812363,164.329590 
	C163.854584,171.074066 159.991119,177.498276 156.127640,183.922485 
z"/>
<path fill="#0F978D" opacity="1.000000" stroke="none" 
	d="
M180.986755,131.010559 
	C180.986755,131.010559 180.991364,131.510529 180.596802,131.831039 
	C178.900009,132.763855 177.622101,133.847595 176.291809,133.916260 
	C161.423004,134.683594 146.546097,135.294373 131.671387,135.947327 
	C132.549210,131.395905 133.427048,126.844498 134.529755,121.971199 
	C136.576141,122.081711 138.437897,123.008774 140.212555,122.864532 
	C150.168976,122.055275 160.104401,120.987709 170.654297,120.298538 
	C174.503326,124.062698 177.745041,127.536629 180.986755,131.010559 
z"/>
<path fill="#089282" opacity="1.000000" stroke="none" 
	d="
M197.059479,260.157043 
	C189.465958,250.742966 180.428253,243.449097 170.151260,237.064789 
	C169.876709,236.487274 169.932663,236.047546 170.285095,235.140625 
	C170.809036,234.399109 170.881180,234.088593 170.798004,233.741898 
	C170.798004,233.741898 170.753006,233.732071 171.124115,233.935608 
	C178.129349,235.428665 184.735779,236.897232 191.409760,237.928665 
	C194.529465,238.410828 197.779770,238.047928 201.323639,238.105560 
	C205.735809,240.138962 209.795212,242.134857 213.925873,244.392029 
	C214.059265,244.822830 214.121399,244.992355 214.074097,245.484436 
	C209.248016,251.528458 204.531387,257.249908 199.814758,262.971344 
	C198.989334,262.078033 198.163910,261.184723 197.059479,260.157043 
z"/>
<path fill="#149B96" opacity="1.000000" stroke="none" 
	d="
M131.453033,136.282501 
	C146.546097,135.294373 161.423004,134.683594 176.291809,133.916260 
	C177.622101,133.847595 178.900009,132.763855 180.577362,132.080276 
	C181.001053,132.175339 181.049652,132.341690 181.062469,133.124237 
	C179.985764,136.167816 178.944885,138.595200 177.677094,141.193329 
	C177.295090,141.900787 177.139969,142.437469 176.991501,142.982269 
	C176.998169,142.990372 176.973053,142.986298 176.514160,142.990463 
	C173.229950,143.023285 170.393082,142.897339 167.581329,143.107361 
	C155.401428,144.017120 143.228867,145.025024 131.053635,145.997238 
	C131.113983,142.870712 131.174332,139.744202 131.453033,136.282501 
z"/>
<path fill="#199F9D" opacity="1.000000" stroke="none" 
	d="
M130.993744,146.408707 
	C143.228867,145.025024 155.401428,144.017120 167.581329,143.107361 
	C170.393082,142.897339 173.229950,143.023285 176.482590,143.353836 
	C175.274765,147.142441 173.639603,150.571854 172.004440,154.001251 
	C169.744766,153.694855 167.467834,153.033661 165.228348,153.142548 
	C154.697113,153.654541 144.176132,154.377914 133.220673,155.045441 
	C132.171188,152.316742 131.552536,149.568451 130.993744,146.408707 
z"/>
<path fill="#0F978D" opacity="1.000000" stroke="none" 
	d="
M170.576355,233.770691 
	C170.881180,234.088593 170.809036,234.399109 170.388840,234.824097 
	C170.153503,234.810043 170.110916,234.645309 170.008087,234.232574 
	C169.947845,233.984558 170.354721,233.799469 170.576355,233.770691 
z"/>
<path fill="#5B469C" opacity="1.000000" stroke="none" 
	d="
M163.758118,296.063995 
	C163.666687,296.629059 163.299454,297.267639 162.646545,297.975098 
	C162.734680,297.408508 163.108490,296.773010 163.758118,296.063995 
z"/>
<path fill="#FBBA1D" opacity="1.000000" stroke="none" 
	d="
M342.024658,326.649414 
	C341.479218,327.561432 340.993683,328.124603 339.799683,328.841125 
	C325.162109,329.572144 311.356689,328.893524 297.789337,324.494202 
	C298.484894,319.697723 299.265411,315.341858 300.315125,311.084778 
	C304.376709,307.773254 308.169098,304.362976 312.102692,301.268799 
	C315.376251,306.953522 315.340912,306.803223 322.168701,305.197418 
	C323.670990,304.844116 326.445374,305.450378 327.048126,306.513702 
	C329.313995,310.511017 333.176392,308.069366 336.077881,309.243744 
	C337.407135,309.781738 339.244873,309.063416 340.952942,308.905487 
	C340.990387,309.092865 341.179962,310.041443 341.627777,312.282166 
	C341.936157,309.935883 342.062561,308.974091 342.214050,307.821594 
	C344.239044,309.999817 346.155884,312.061707 348.072723,314.123627 
	C346.076630,318.182617 344.080566,322.241577 342.024658,326.649414 
z"/>
<path fill="#A2E6F3" opacity="1.000000" stroke="none" 
	d="
M410.969177,280.662170 
	C411.967468,284.108398 412.816711,287.205505 413.720825,290.653320 
	C400.854401,294.500549 387.954224,298.078247 374.997437,301.437866 
	C371.662659,302.302521 368.139648,302.419708 364.721619,302.990967 
	C361.171783,303.584259 357.644379,304.311646 353.828491,304.681152 
	C357.134094,299.671265 360.718323,294.960602 364.620422,290.135437 
	C368.340088,287.347473 371.741974,284.674072 375.550964,281.999023 
	C378.833679,281.421997 381.763031,281.035461 384.574768,280.235535 
	C392.741730,277.912109 400.861511,275.422943 408.999817,272.998779 
	C409.606598,275.436859 410.213379,277.874908 410.969177,280.662170 
z"/>
<path fill="#FCC625" opacity="1.000000" stroke="none" 
	d="
M364.302582,290.250000 
	C360.718323,294.960602 357.134094,299.671265 353.453461,304.694153 
	C351.767395,307.892944 350.177673,310.779480 348.330322,313.894836 
	C346.155884,312.061707 344.239044,309.999817 342.214050,307.821594 
	C342.062561,308.974091 341.936157,309.935883 341.627777,312.282166 
	C341.179962,310.041443 340.990387,309.092865 340.952942,308.905487 
	C339.244873,309.063416 337.407135,309.781738 336.077881,309.243744 
	C333.176392,308.069366 329.313995,310.511017 327.048126,306.513702 
	C326.445374,305.450378 323.670990,304.844116 322.168701,305.197418 
	C315.340912,306.803223 315.376251,306.953522 312.255554,300.972534 
	C316.869476,294.600311 321.471741,288.840454 326.300049,283.044952 
	C326.526123,283.009308 326.976379,282.920654 327.370850,282.987427 
	C339.944397,285.452789 352.123474,287.851379 364.302582,290.250000 
z"/>
<path fill="#F59223" opacity="1.000000" stroke="none" 
	d="
M365.456390,332.140259 
	C363.598297,334.436188 362.146393,337.428650 359.760681,338.819702 
	C357.643036,340.054474 353.939270,340.573181 351.910980,339.523438 
	C348.141632,337.572632 348.931763,333.401062 349.566833,329.380432 
	C349.656036,328.840607 349.768951,328.684906 350.447845,328.270142 
	C352.673401,327.989227 354.332977,327.967316 356.053192,328.315155 
	C359.227997,329.836670 362.342194,330.988464 365.456390,332.140259 
z"/>
<path fill="#CD6F2D" opacity="1.000000" stroke="none" 
	d="
M355.992584,327.945435 
	C354.332977,327.967316 352.673401,327.989227 350.600128,328.025116 
	C351.941406,325.432953 353.696350,322.826782 356.240997,320.116211 
	C362.411530,320.373596 367.792328,320.735352 373.173157,321.097137 
	C372.653687,322.294678 372.134247,323.492218 370.901489,324.850769 
	C365.456299,325.989624 360.724457,326.967529 355.992584,327.945435 
z"/>
<path fill="#C15A30" opacity="1.000000" stroke="none" 
	d="
M373.353027,321.064392 
	C367.792328,320.735352 362.411530,320.373596 356.572510,320.022858 
	C360.417206,318.630371 364.648224,316.892334 369.049500,315.947083 
	C371.748444,315.367432 373.898987,316.904114 373.886169,320.575073 
	C373.892914,320.967651 373.532867,321.031647 373.353027,321.064392 
z"/>
<path fill="#1B7E40" opacity="1.000000" stroke="none" 
	d="
M181.346100,130.949738 
	C177.745041,127.536629 174.503326,124.062698 171.082550,120.302467 
	C162.377945,108.215317 153.852386,96.414467 145.199097,84.303452 
	C161.406097,84.662277 177.740814,85.331276 194.538391,85.999374 
	C192.702866,95.407318 190.404510,104.816162 188.065948,114.602638 
	C185.918961,120.283165 183.812195,125.586052 181.346100,130.949738 
z"/>
<path fill="#E0305C" opacity="1.000000" stroke="none" 
	d="
M369.007690,220.386688 
	C370.482849,216.802902 371.968109,213.605011 374.068420,210.352783 
	C377.831635,211.253204 380.958649,212.285721 384.131866,213.148178 
	C393.796204,215.774826 403.478363,218.335907 413.153564,220.922501 
	C418.356995,225.690491 423.560425,230.458496 428.944580,235.492981 
	C424.204468,235.712769 419.074890,236.534943 414.411957,235.414642 
	C407.512817,233.757065 401.057739,230.322128 394.204498,228.382767 
	C387.358398,226.445404 380.222626,225.552048 373.288849,223.888412 
	C371.707031,223.508881 370.433350,221.845200 369.007690,220.386688 
z"/>
<path fill="#B7ECF6" opacity="1.000000" stroke="none" 
	d="
M375.170593,242.669571 
	C375.717102,246.087509 375.576050,249.392593 376.700256,252.189026 
	C378.516235,256.706085 382.821472,257.222351 387.508850,257.429352 
	C385.040192,258.890015 382.204773,259.901184 379.411591,261.017914 
	C376.256805,262.279236 373.139984,263.635437 369.733246,264.846863 
	C368.709351,264.134125 367.958893,263.524872 367.070496,262.599274 
	C366.324158,261.497772 365.735504,260.696320 365.104248,259.929962 
	C358.050690,251.367035 358.690216,245.765472 367.489746,239.108582 
	C368.017609,238.709259 368.543762,238.307678 369.070709,237.907135 
	C373.315369,236.335800 373.950134,239.647339 375.170593,242.669571 
z"/>
<path fill="#CD6F2D" opacity="1.000000" stroke="none" 
	d="
M369.012604,237.551163 
	C368.543762,238.307678 368.017609,238.709259 367.489746,239.108582 
	C358.690216,245.765472 358.050690,251.367035 365.104248,259.929962 
	C365.735504,260.696320 366.324158,261.497772 366.689575,262.587585 
	C359.983643,260.276062 353.520721,257.659912 347.028809,254.821686 
	C346.999756,254.599625 346.950592,254.154434 347.308350,254.094040 
	C351.801147,247.367783 355.936188,240.701904 360.071228,234.036041 
	C361.285645,232.233932 362.500031,230.431824 363.849121,228.325745 
	C363.983795,228.021774 364.437378,228.014297 364.663055,228.019180 
	C366.243988,231.081100 367.599243,234.138138 369.012604,237.551163 
z"/>
<path fill="#A54898" opacity="1.000000" stroke="none" 
	d="
M414.829529,175.667068 
	C416.327576,180.421951 417.671600,184.836746 419.029907,189.639175 
	C415.485229,191.691833 412.256775,191.498535 408.612244,189.582352 
	C406.542908,188.494354 402.828552,188.208237 401.058807,189.379654 
	C397.748047,191.571030 396.317108,190.205811 394.399292,187.388474 
	C393.295105,189.001541 392.343567,190.391632 391.698730,191.333664 
	C390.572021,191.196106 389.417755,191.055191 387.642151,190.965164 
	C385.986847,189.668518 384.952911,188.321014 383.991119,186.606873 
	C385.694397,181.482162 387.325562,176.724091 389.219604,171.712616 
	C390.628998,167.111282 391.775543,162.763336 392.922089,158.415390 
	C393.453217,158.084717 393.984375,157.754044 394.759033,157.223160 
	C399.742676,155.400116 404.482788,153.777298 409.592102,152.173370 
	C411.532715,159.903839 413.104095,167.615417 414.829529,175.667068 
z"/>
<path fill="#DD3464" opacity="1.000000" stroke="none" 
	d="
M383.918976,186.973511 
	C384.952911,188.321014 385.986847,189.668518 387.328125,191.088074 
	C390.578735,195.086624 393.288025,199.218842 396.518433,202.892929 
	C401.770691,208.866531 407.363892,214.540390 412.983398,220.631638 
	C403.478363,218.335907 393.796204,215.774826 384.131866,213.148178 
	C380.958649,212.285721 377.831635,211.253204 374.342285,210.149841 
	C377.012604,202.601242 380.024200,195.201279 383.258728,187.405304 
	C383.481720,187.009323 383.918976,186.973511 383.918976,186.973511 
z"/>
<path fill="#C62035" opacity="1.000000" stroke="none" 
	d="
M383.991119,186.606873 
	C383.918976,186.973511 383.481720,187.009323 383.263306,187.023407 
	C378.768097,181.547089 374.491333,176.056686 370.076782,170.247620 
	C371.312592,169.261505 372.686188,168.594025 374.663269,168.052917 
	C376.536285,169.501709 377.626404,170.319626 379.926971,170.172882 
	C382.886719,169.984100 385.942352,171.298889 388.956726,171.966034 
	C387.325562,176.724091 385.694397,181.482162 383.991119,186.606873 
z"/>
<path fill="#B51F2F" opacity="1.000000" stroke="none" 
	d="
M389.219574,171.712616 
	C385.942352,171.298889 382.886719,169.984100 379.926971,170.172882 
	C377.626404,170.319626 376.536285,169.501709 374.996948,168.031937 
	C380.554413,164.687103 386.381714,161.489594 392.565552,158.353729 
	C391.775543,162.763336 390.628998,167.111282 389.219574,171.712616 
z"/>
<path fill="#C2572A" opacity="1.000000" stroke="none" 
	d="
M200.745605,58.068962 
	C200.899078,58.286385 200.741364,58.554100 200.279556,58.879364 
	C200.127975,58.666859 200.280975,58.394302 200.745605,58.068962 
z"/>
<path fill="#ADE9F4" opacity="1.000000" stroke="none" 
	d="
M370.006653,264.950378 
	C373.139984,263.635437 376.256805,262.279236 379.411591,261.017914 
	C382.204773,259.901184 385.040192,258.890015 387.925476,257.478943 
	C399.701172,254.969727 405.617126,259.212250 409.027527,272.614075 
	C400.861511,275.422943 392.741730,277.912109 384.574768,280.235535 
	C381.763031,281.035461 378.833679,281.421997 375.567444,281.547119 
	C376.390381,274.774323 373.844330,269.655548 370.006653,264.950378 
z"/>
<path fill="#F59223" opacity="1.000000" stroke="none" 
	d="
M297.874329,324.934784 
	C311.356689,328.893524 325.162109,329.572144 339.562317,328.999329 
	C336.961456,332.614258 333.889557,336.224304 330.510834,339.949524 
	C321.902100,338.246735 313.606567,336.398560 305.293030,334.635223 
	C303.541901,334.263794 301.724701,334.203674 299.509583,334.000671 
	C298.672913,332.531799 298.264648,331.062439 297.798889,328.840820 
	C297.785736,327.037323 297.830048,325.986053 297.874329,324.934784 
z"/>
<path fill="#F57F2C" opacity="1.000000" stroke="none" 
	d="
M356.053192,328.315155 
	C360.724457,326.967529 365.456299,325.989624 370.618530,325.016968 
	C369.781494,326.792084 368.514099,328.562012 367.112854,330.628387 
	C366.601837,331.224854 366.224762,331.524841 365.652039,331.982544 
	C362.342194,330.988464 359.227997,329.836670 356.053192,328.315155 
z"/>
<path fill="#C2572A" opacity="1.000000" stroke="none" 
	d="
M224.467346,45.450157 
	C224.523148,45.416725 224.411560,45.483593 224.467346,45.450157 
z"/>
<path fill="#C2572A" opacity="1.000000" stroke="none" 
	d="
M205.550537,43.467995 
	C205.583817,43.523876 205.517242,43.412113 205.550537,43.467995 
z"/>
<path fill="#1FA3A4" opacity="1.000000" stroke="none" 
	d="
M281.030609,104.956558 
	C281.030609,104.956558 280.928375,104.570290 280.873657,104.379776 
	C282.098969,100.669617 283.379059,97.149963 285.298706,93.315552 
	C300.340271,95.017128 314.742218,97.033478 329.064514,99.341187 
	C328.670929,100.144073 328.357025,100.655602 327.726929,101.288620 
	C323.857605,103.073608 320.394714,104.981468 316.727448,106.335838 
	C312.581940,107.866852 308.252869,108.900764 303.970093,110.020149 
	C303.936554,109.889458 304.105286,109.678871 303.980316,109.318008 
	C296.247101,107.623611 288.638855,106.290085 281.030609,104.956558 
z"/>
<path fill="#0F978D" opacity="1.000000" stroke="none" 
	d="
M290.560455,73.224487 
	C298.567505,73.812378 306.330475,74.687485 314.097046,75.529434 
	C320.069458,76.176880 326.046387,76.782578 332.346954,77.228317 
	C333.034485,77.846062 333.396362,78.642349 333.894958,80.074471 
	C333.969269,82.628487 333.906891,84.546654 333.514404,86.405602 
	C327.809082,85.737518 322.429260,85.166138 317.059631,84.511528 
	C307.632385,83.362267 298.211365,82.162064 288.787720,80.983200 
	C289.297791,78.487946 289.807861,75.992683 290.560455,73.224487 
z"/>
<path fill="#199F9D" opacity="1.000000" stroke="none" 
	d="
M329.144196,99.049828 
	C314.742218,97.033478 300.340271,95.017128 285.489105,93.002304 
	C285.776398,90.476112 286.512878,87.948395 287.897705,85.223984 
	C303.353180,87.351234 318.160278,89.675186 332.978088,92.338974 
	C332.389343,94.124619 331.789856,95.570435 330.971252,97.211143 
	C330.216125,97.953964 329.680176,98.501900 329.144196,99.049828 
z"/>
<path fill="#149B96" opacity="1.000000" stroke="none" 
	d="
M332.967407,91.999130 
	C318.160278,89.675186 303.353180,87.351234 288.133545,84.960251 
	C287.916779,83.752747 288.112488,82.612282 288.547974,81.227509 
	C298.211365,82.162064 307.632385,83.362267 317.059631,84.511528 
	C322.429260,85.166138 327.809082,85.737518 333.567322,86.710144 
	C333.622681,88.715660 333.295013,90.357399 332.967407,91.999130 
z"/>
<path fill="#B7ECF6" opacity="1.000000" stroke="none" 
	d="
M213.068268,165.447632 
	C216.116348,164.302475 219.164413,163.157318 222.558411,161.901901 
	C223.354675,163.370865 223.537994,165.093491 224.297012,166.506973 
	C231.205078,179.371658 238.448959,192.192307 249.086914,202.276993 
	C257.404541,210.162018 267.050934,216.649109 276.145020,223.708267 
	C278.094482,225.221512 280.207886,226.523483 282.621338,228.353668 
	C282.950714,232.633499 282.904602,236.482468 282.880493,240.665649 
	C283.899353,242.677338 284.896118,244.354813 285.988159,246.285385 
	C286.390930,246.685608 286.698425,246.832733 287.006073,246.992218 
	C287.006195,247.004578 287.025543,246.987305 287.142670,247.303558 
	C289.577545,249.899628 291.895294,252.179428 294.025787,254.795410 
	C291.979889,254.957001 289.965759,255.189392 288.285645,254.547470 
	C258.159058,243.036438 234.272858,223.539200 216.153564,197.052490 
	C210.462769,188.733688 205.907837,179.637878 200.883667,170.691010 
	C200.934311,170.484299 201.062134,170.078308 201.439301,170.060928 
	C205.567062,168.511581 209.317657,166.979599 213.068268,165.447632 
z"/>
<path fill="#BD4E2A" opacity="1.000000" stroke="none" 
	d="
M282.858459,240.331421 
	C282.904602,236.482468 282.950714,232.633499 282.967834,228.392456 
	C284.378235,226.061890 285.817688,224.123428 287.557251,222.035919 
	C288.638519,222.248230 289.419678,222.609604 290.517761,223.010757 
	C293.943512,225.023727 297.052338,226.996918 300.696838,229.303070 
	C304.765533,231.746674 308.253906,233.936691 311.840179,235.952560 
	C321.325470,241.284286 330.853119,246.540619 339.970337,251.882141 
	C336.939606,251.630157 334.302460,251.323029 330.957947,250.933502 
	C328.414032,250.037582 325.054657,248.767593 321.639862,247.669998 
	C314.637543,245.419342 307.664124,243.042923 300.566742,241.135330 
	C295.095093,239.664703 289.452393,238.830521 283.663666,237.668808 
	C283.523376,238.132782 283.190918,239.232101 282.858459,240.331421 
z"/>
<path fill="#E7F8FC" opacity="1.000000" stroke="none" 
	d="
M325.210022,150.081848 
	C323.153839,154.654205 320.748383,159.087296 318.332916,163.514938 
	C317.151001,165.681503 315.950531,167.837952 314.467438,170.213440 
	C310.581055,167.355148 306.753632,164.511185 303.445007,161.155670 
	C298.548950,156.190231 293.625275,151.156158 289.478607,145.582031 
	C286.801758,141.983734 285.580200,137.323654 283.519287,133.233719 
	C282.903046,132.010864 281.654968,131.106400 280.556519,129.769135 
	C284.444550,125.869980 288.383240,122.151268 292.526886,118.677032 
	C296.269897,115.538727 300.237000,112.667732 304.105286,109.678864 
	C304.105286,109.678871 303.936554,109.889458 303.976257,110.412651 
	C305.054535,116.742683 306.093170,122.549522 307.016907,128.665985 
	C306.345612,131.630890 305.789215,134.286179 305.279999,137.277710 
	C308.416199,142.075150 313.097504,142.823700 318.002655,143.050354 
	C320.287292,145.347015 322.571930,147.643692 325.210022,150.081848 
z"/>
<path fill="#1B5C2C" opacity="1.000000" stroke="none" 
	d="
M303.980316,109.318001 
	C300.237000,112.667732 296.269897,115.538727 292.526886,118.677032 
	C288.383240,122.151268 284.444550,125.869980 280.192047,129.732681 
	C278.556854,130.341904 277.146271,130.700668 275.234802,131.013611 
	C274.542999,130.967209 274.372345,131.025726 274.221924,131.143372 
	C272.698547,131.259781 271.175201,131.376175 269.319580,131.282532 
	C272.792206,122.482094 276.597076,113.891724 280.716309,105.128952 
	C288.638855,106.290085 296.247101,107.623611 303.980316,109.318001 
z"/>
<path fill="#1B7E40" opacity="1.000000" stroke="none" 
	d="
M274.346008,131.253967 
	C274.372345,131.025726 274.542999,130.967209 274.867249,130.997421 
	C274.902039,131.262726 274.725220,131.375244 274.346008,131.253967 
z"/>
<path fill="#8491C6" opacity="1.000000" stroke="none" 
	d="
M212.876587,165.140930 
	C209.317657,166.979599 205.567062,168.511581 201.183609,169.767578 
	C198.669571,169.059296 196.032806,169.265121 195.036575,168.085464 
	C190.457489,162.663284 184.572922,163.270538 178.585434,163.644379 
	C175.032104,163.866257 171.466660,163.894180 167.906662,164.009308 
	C169.248322,160.912735 170.589996,157.816162 171.968048,154.360413 
	C173.639603,150.571854 175.274765,147.142441 176.941498,143.349670 
	C176.973053,142.986298 176.998169,142.990372 177.230896,142.819351 
	C177.610397,142.106415 177.757187,141.564484 177.903992,141.022568 
	C178.944885,138.595200 179.985764,136.167816 181.108749,133.380035 
	C185.291504,137.239517 189.392151,141.459412 193.798767,145.825836 
	C200.298126,152.259674 206.491516,158.546951 212.876587,165.140930 
z"/>
<path fill="#C8632B" opacity="1.000000" stroke="none" 
	d="
M235.550842,60.467827 
	C235.584412,60.524078 235.517258,60.411572 235.550842,60.467827 
z"/>
<path fill="#F7961C" opacity="1.000000" stroke="none" 
	d="
M340.363892,251.826965 
	C330.853119,246.540619 321.325470,241.284286 311.840179,235.952560 
	C308.253906,233.936691 304.765533,231.746674 301.044495,229.344147 
	C320.424377,229.661316 340.024506,229.865372 359.702698,233.874680 
	C355.936188,240.701904 351.801147,247.367783 346.960999,254.001129 
	C344.291931,253.254745 342.327911,252.540863 340.363892,251.826965 
z"/>
<path fill="#EAEAEB" opacity="1.000000" stroke="none" 
	d="
M255.000000,438.998779 
	C269.616608,439.334045 283.766418,439.187744 297.839264,440.157623 
	C309.011169,440.927612 320.108643,442.940979 331.187653,444.722687 
	C332.900482,444.998108 334.336823,446.992920 335.901062,448.192566 
	C334.372070,449.249084 332.967712,450.912720 331.292450,451.256622 
	C324.182159,452.716339 317.018799,453.985382 309.825531,454.960846 
	C278.747223,459.175354 247.497162,456.681488 216.339355,456.681580 
	C204.541214,456.681610 192.727539,453.163574 180.965073,451.008240 
	C179.535172,450.746246 178.380920,448.979706 177.098923,447.910492 
	C178.438553,446.885468 179.649765,445.254120 181.139664,444.938568 
	C188.240692,443.434540 195.406342,442.221497 202.569489,441.027771 
	C219.789841,438.158081 237.166016,439.076263 255.000000,438.998779 
M251.638290,441.001221 
	C234.582275,443.249908 216.783035,440.261444 199.656158,447.692902 
	C215.011902,457.394714 300.489471,457.188934 313.113251,447.478973 
	C310.465881,446.556335 308.261444,445.262115 305.965332,445.071350 
	C288.188782,443.594513 270.394531,442.330872 251.638290,441.001221 
z"/>
<path fill="#96E2F1" opacity="1.000000" stroke="none" 
	d="
M297.789337,324.494202 
	C297.830048,325.986053 297.785736,327.037323 297.671265,328.475372 
	C297.399170,325.526398 294.935608,324.850494 292.303009,324.216553 
	C268.356323,318.450287 246.194092,308.482330 225.316422,295.552643 
	C223.385315,294.356720 221.796600,292.607941 220.139160,290.539673 
	C225.703400,285.586792 231.177368,281.210114 236.964264,277.010437 
	C239.309052,279.090759 241.064453,281.478790 243.416687,282.820404 
	C261.616272,293.200775 280.717102,301.324127 301.389862,305.490173 
	C300.892914,307.572632 300.469452,309.279327 300.045959,310.985992 
	C299.265411,315.341858 298.484894,319.697723 297.789337,324.494202 
z"/>
<path fill="#C62035" opacity="1.000000" stroke="none" 
	d="
M236.651337,276.833435 
	C231.177368,281.210114 225.703400,285.586792 220.000259,290.187378 
	C219.051804,290.820953 218.332504,291.230621 217.307800,291.693939 
	C214.093460,286.374725 211.184540,281.001862 208.459839,275.334747 
	C209.719574,274.495758 210.795074,273.951050 211.652725,273.516663 
	C212.437622,274.548859 213.423737,275.845642 214.454666,277.201355 
	C216.954941,271.950470 218.038727,271.850555 224.778870,276.187347 
	C228.487503,270.650879 233.785751,272.011902 238.928314,273.319458 
	C238.118973,274.700958 237.385162,275.767181 236.651337,276.833435 
z"/>
<path fill="#B51F2F" opacity="1.000000" stroke="none" 
	d="
M239.003815,273.004211 
	C233.785751,272.011902 228.487503,270.650879 224.778870,276.187347 
	C218.038727,271.850555 216.954941,271.950470 214.454666,277.201355 
	C213.423737,275.845642 212.437622,274.548859 211.652725,273.516663 
	C210.795074,273.951050 209.719574,274.495758 208.330933,275.014526 
	C208.017792,274.988525 208.000427,274.998016 207.903992,274.781311 
	C207.623291,274.301849 207.380219,274.115906 207.078369,274.006775 
	C204.787201,270.815918 202.496048,267.625031 200.035889,264.117554 
	C199.866898,263.800995 199.882401,263.383331 199.848572,263.177338 
	C204.531387,257.249908 209.248016,251.528458 214.412384,245.525955 
	C224.196869,249.293991 233.533630,253.343109 242.959808,257.796814 
	C243.504745,263.628662 242.681183,268.706390 239.003815,273.004211 
z"/>
<path fill="#C62035" opacity="1.000000" stroke="none" 
	d="
M207.162674,274.227509 
	C207.380219,274.115906 207.623291,274.301849 207.907364,274.775085 
	C207.688217,274.899078 207.434830,274.720001 207.162674,274.227509 
z"/>
<path fill="#F2FBFD" opacity="1.000000" stroke="none" 
	d="
M307.131775,128.356369 
	C306.093170,122.549522 305.054535,116.742683 304.009766,110.543343 
	C308.252869,108.900764 312.581940,107.866852 316.727448,106.335838 
	C320.394714,104.981468 323.857605,103.073608 327.717072,101.690033 
	C327.701294,106.806427 326.409851,111.822296 327.264587,116.440971 
	C328.899323,125.274124 338.975555,130.842819 347.605499,128.638519 
	C357.250305,126.175018 363.307281,116.693146 360.974304,107.710411 
	C358.459656,98.028168 349.605438,92.483826 340.310822,94.771370 
	C337.270660,95.519600 334.230530,96.267952 331.190369,97.016258 
	C331.789856,95.570435 332.389343,94.124619 332.978088,92.338966 
	C333.295013,90.357399 333.622681,88.715660 333.897400,86.769379 
	C333.906891,84.546654 333.969269,82.628487 334.063110,80.356766 
	C343.462982,78.122322 352.432190,78.763268 361.029297,83.470093 
	C377.433502,92.451202 381.666565,117.316948 369.909729,131.824158 
	C359.864288,144.219666 342.261322,147.189209 329.066132,141.052841 
	C328.033936,140.572815 326.881348,140.351715 325.478363,139.700256 
	C325.197876,138.968979 325.223694,138.547684 325.604492,138.092651 
	C329.581482,136.013321 331.632843,132.480392 329.667145,129.072891 
	C328.094971,126.347527 324.530212,123.955154 321.397186,123.126541 
	C315.866760,121.663879 311.304565,124.960579 307.131775,128.356369 
z"/>
<path fill="#207133" opacity="1.000000" stroke="none" 
	d="
M325.249542,138.126389 
	C325.223694,138.547684 325.197876,138.968979 325.094147,139.697128 
	C322.884064,140.904129 320.751862,141.804276 318.311157,142.877380 
	C313.097504,142.823700 308.416199,142.075150 305.488586,137.102829 
	C306.314270,136.250351 307.025513,135.545349 307.635651,135.624054 
	C313.516663,136.382812 319.380676,137.273468 325.249542,138.126389 
z"/>
<path fill="#5D78B9" opacity="1.000000" stroke="none" 
	d="
M213.854630,244.130768 
	C209.795212,242.134857 205.735809,240.138962 201.142426,237.812439 
	C191.728745,232.326767 182.849075,227.171738 173.969391,222.016708 
	C173.340637,215.307617 172.711899,208.598511 171.950409,201.265900 
	C171.578918,200.416046 171.340164,200.189713 171.101410,199.963379 
	C170.763931,199.508316 170.426453,199.053253 170.337936,198.177231 
	C171.171097,197.427658 171.755310,197.099045 172.584381,196.983490 
	C175.563751,199.342804 178.041656,201.992233 181.080444,203.541794 
	C190.555588,208.373535 200.242996,212.789047 210.072662,217.608047 
	C215.207428,221.536667 220.117645,225.223175 224.887344,229.227173 
	C221.116089,234.406708 217.485367,239.268723 213.854630,244.130768 
z"/>
<path fill="#7A8BC4" opacity="1.000000" stroke="none" 
	d="
M172.339508,196.770416 
	C171.755310,197.099045 171.171097,197.427658 170.279144,197.891296 
	C165.459259,193.516846 160.947128,189.007355 156.281326,184.210175 
	C159.991119,177.498276 163.854584,171.074066 167.812363,164.329575 
	C171.466660,163.894180 175.032104,163.866257 178.585434,163.644379 
	C184.572922,163.270538 190.457489,162.663284 195.036575,168.085464 
	C196.032806,169.265121 198.669571,169.059296 200.806458,169.784943 
	C201.062134,170.078308 200.934311,170.484299 200.516449,170.711838 
	C195.402771,172.986404 190.706985,175.033432 185.684830,177.176697 
	C183.693069,178.312668 181.898926,179.193649 180.385651,180.420959 
	C175.216812,184.613052 169.984619,188.847504 172.339508,196.770416 
z"/>
<path fill="#0F978D" opacity="1.000000" stroke="none" 
	d="
M173.730881,222.289612 
	C182.849075,227.171738 191.728745,232.326767 200.789642,237.774918 
	C197.779770,238.047928 194.529465,238.410828 191.409760,237.928665 
	C184.735779,236.897232 178.129349,235.428665 171.124603,233.912598 
	C171.666763,229.978195 172.579559,226.270340 173.730881,222.289612 
z"/>
<path fill="#7A8BC4" opacity="1.000000" stroke="none" 
	d="
M171.148590,200.214478 
	C171.340164,200.189713 171.578918,200.416046 171.880005,200.887085 
	C171.693466,200.909714 171.444611,200.687653 171.148590,200.214478 
z"/>
<path fill="#3E78BC" opacity="1.000000" stroke="none" 
	d="
M213.925873,244.392029 
	C217.485367,239.268723 221.116089,234.406708 225.191956,229.370239 
	C233.809570,236.192596 239.457977,244.883865 242.967316,255.407730 
	C242.934921,256.333679 242.902649,256.862946 242.870377,257.392212 
	C233.533630,253.343109 224.196869,249.293991 214.521820,245.203369 
	C214.121399,244.992355 214.059265,244.822830 213.925873,244.392029 
z"/>
<path fill="#199F9D" opacity="1.000000" stroke="none" 
	d="
M177.677094,141.193329 
	C177.757187,141.564484 177.610397,142.106415 177.224228,142.811249 
	C177.139969,142.437469 177.295090,141.900787 177.677094,141.193329 
z"/>
<path fill="#F59223" opacity="1.000000" stroke="none" 
	d="
M300.315125,311.084778 
	C300.469452,309.279327 300.892914,307.572632 301.590332,305.210297 
	C303.851105,297.035614 305.837982,289.516571 307.891754,281.626556 
	C308.027954,280.506927 308.097290,279.758331 308.543091,279.055908 
	C314.637756,280.428253 320.355865,281.754425 326.074005,283.080597 
	C321.471741,288.840454 316.869476,294.600311 312.114380,300.656433 
	C308.169098,304.362976 304.376709,307.773254 300.315125,311.084778 
z"/>
<path fill="#F57F2C" opacity="1.000000" stroke="none" 
	d="
M369.733246,264.846893 
	C373.844330,269.655548 376.390381,274.774323 375.160339,281.548767 
	C371.741974,284.674072 368.340088,287.347473 364.620422,290.135437 
	C352.123474,287.851379 339.944397,285.452789 327.534698,282.687744 
	C330.874054,277.553467 334.444000,272.785614 338.302185,267.865845 
	C339.722168,266.140045 340.853973,264.566162 342.259491,262.799316 
	C344.041443,260.085480 345.549652,257.564636 347.057831,255.043762 
	C353.520721,257.659912 359.983643,260.276062 366.827454,262.903931 
	C367.958893,263.524872 368.709351,264.134125 369.733246,264.846893 
z"/>
<path fill="#CD6F2D" opacity="1.000000" stroke="none" 
	d="
M338.013947,268.017761 
	C334.444000,272.785614 330.874054,277.553467 327.140259,282.620972 
	C326.976379,282.920654 326.526123,283.009308 326.300049,283.044952 
	C320.355865,281.754425 314.637756,280.428253 308.483429,278.636414 
	C308.124207,270.573883 304.154724,264.734192 300.209229,259.056549 
	C313.111969,262.027832 325.562958,265.022797 338.013947,268.017761 
z"/>
<path fill="#C2572A" opacity="1.000000" stroke="none" 
	d="
M347.028809,254.821686 
	C345.549652,257.564636 344.041443,260.085480 341.979828,262.597565 
	C336.335114,260.572845 331.345032,258.232788 326.132507,256.605011 
	C313.304108,252.598969 300.588074,248.041397 287.025543,246.987305 
	C287.025543,246.987305 287.006195,247.004578 286.881775,246.770355 
	C286.469177,246.368179 286.181030,246.200226 285.892883,246.032288 
	C284.896118,244.354813 283.899353,242.677338 282.880493,240.665649 
	C283.190918,239.232101 283.523376,238.132782 283.663666,237.668808 
	C289.452393,238.830521 295.095093,239.664703 300.566742,241.135330 
	C307.664124,243.042923 314.637543,245.419342 321.639862,247.669998 
	C325.054657,248.767593 328.414032,250.037582 330.957947,250.933502 
	C334.302460,251.323029 336.939606,251.630157 339.970337,251.882141 
	C342.327911,252.540863 344.291931,253.254745 346.603271,254.061523 
	C346.950592,254.154434 346.999756,254.599625 347.028809,254.821686 
M301.482605,243.588791 
	C301.482605,243.588791 301.415253,243.476013 301.482605,243.588791 
M315.482605,247.588791 
	C315.482605,247.588791 315.415253,247.476013 315.482605,247.588791 
M328.482666,251.588791 
	C328.482666,251.588791 328.415253,251.476013 328.482666,251.588791 
z"/>
<path fill="#FFFFFF" opacity="1.000000" stroke="none" 
	d="
M330.971252,97.211143 
	C334.230530,96.267952 337.270660,95.519600 340.310822,94.771370 
	C349.605438,92.483826 358.459656,98.028168 360.974304,107.710411 
	C363.307281,116.693146 357.250305,126.175018 347.605499,128.638519 
	C338.975555,130.842819 328.899323,125.274124 327.264587,116.440971 
	C326.409851,111.822296 327.701294,106.806427 328.033264,101.568535 
	C328.357025,100.655602 328.670929,100.144073 329.064514,99.341187 
	C329.680176,98.501900 330.216125,97.953964 330.971252,97.211143 
z"/>
<path fill="#ADE9F4" opacity="1.000000" stroke="none" 
	d="
M299.757477,259.080231 
	C304.154724,264.734192 308.124207,270.573883 308.106934,278.590210 
	C308.097290,279.758331 308.027954,280.506927 307.503235,281.617828 
	C286.997101,277.554413 268.174805,270.150940 250.865250,258.997437 
	C248.399994,257.408936 245.608124,256.327301 242.967422,255.011063 
	C239.457977,244.883865 233.809570,236.192596 225.332474,229.052734 
	C220.117645,225.223175 215.207428,221.536667 210.097351,217.228012 
	C201.935394,203.430725 193.973282,190.255600 186.011185,177.080475 
	C190.706985,175.033432 195.402771,172.986404 200.465790,170.918549 
	C205.907837,179.637878 210.462769,188.733688 216.153564,197.052490 
	C234.272858,223.539200 258.159058,243.036438 288.285645,254.547470 
	C289.965759,255.189392 291.979889,254.957001 294.342072,254.942062 
	C296.482880,256.195099 298.120178,257.637665 299.757477,259.080231 
z"/>
<path fill="#C8632B" opacity="1.000000" stroke="none" 
	d="
M300.209229,259.056549 
	C298.120178,257.637665 296.482880,256.195099 294.529297,254.605896 
	C291.895294,252.179428 289.577545,249.899628 287.142670,247.303558 
	C300.588074,248.041397 313.304108,252.598969 326.132507,256.605011 
	C331.345032,258.232788 336.335114,260.572845 341.706085,262.790558 
	C340.853973,264.566162 339.722168,266.140045 338.302185,267.865845 
	C325.562958,265.022797 313.111969,262.027832 300.209229,259.056549 
M329.589081,259.516296 
	C329.589081,259.516296 329.476715,259.583771 329.589081,259.516296 
M294.517303,249.409576 
	C294.517303,249.409576 294.584534,249.522003 294.517303,249.409576 
M301.482635,251.588394 
	C301.482635,251.588394 301.415588,251.475891 301.482635,251.588394 
M308.589020,253.516342 
	C308.589020,253.516342 308.476746,253.583832 308.589020,253.516342 
M315.589020,255.516342 
	C315.589020,255.516342 315.476746,255.583832 315.589020,255.516342 
M336.410919,261.481781 
	C336.410919,261.481781 336.523163,261.414154 336.410919,261.481781 
M322.482666,257.588470 
	C322.482666,257.588470 322.415558,257.475922 322.482666,257.588470 
z"/>
<path fill="#C8632B" opacity="1.000000" stroke="none" 
	d="
M285.988159,246.285385 
	C286.181030,246.200226 286.469177,246.368179 286.881653,246.757996 
	C286.698425,246.832733 286.390930,246.685608 285.988159,246.285385 
z"/>
<path fill="#1B5C2C" opacity="1.000000" stroke="none" 
	d="
M325.604492,138.092651 
	C319.380676,137.273468 313.516663,136.382812 307.635651,135.624054 
	C307.025513,135.545349 306.314270,136.250351 305.441345,136.766602 
	C305.789215,134.286179 306.345612,131.630890 307.016907,128.665985 
	C311.304565,124.960579 315.866760,121.663879 321.397186,123.126541 
	C324.530212,123.955154 328.094971,126.347527 329.667145,129.072891 
	C331.632843,132.480392 329.581482,136.013321 325.604492,138.092651 
z"/>
<path fill="#E5E6E6" opacity="1.000000" stroke="none" 
	d="
M252.122009,441.001221 
	C270.394531,442.330872 288.188782,443.594513 305.965332,445.071350 
	C308.261444,445.262115 310.465881,446.556335 313.113251,447.478973 
	C300.489471,457.188934 215.011902,457.394714 199.656158,447.692902 
	C216.783035,440.261444 234.582275,443.249908 252.122009,441.001221 
z"/>
<path fill="#A2E6F3" opacity="1.000000" stroke="none" 
	d="
M242.967316,255.407730 
	C245.608124,256.327301 248.399994,257.408936 250.865250,258.997437 
	C268.174805,270.150940 286.997101,277.554413 307.436340,281.988831 
	C305.837982,289.516571 303.851105,297.035614 301.663818,304.834473 
	C280.717102,301.324127 261.616272,293.200775 243.416687,282.820404 
	C241.064453,281.478790 239.309052,279.090759 236.964264,277.010437 
	C237.385162,275.767181 238.118973,274.700958 238.928314,273.319458 
	C242.681183,268.706390 243.504745,263.628662 242.959808,257.796814 
	C242.902649,256.862946 242.934921,256.333679 242.967316,255.407730 
z"/>
<path fill="#A2E6F3" opacity="1.000000" stroke="none" 
	d="
M185.684830,177.176697 
	C193.973282,190.255600 201.935394,203.430725 209.872803,216.985886 
	C200.242996,212.789047 190.555588,208.373535 181.080444,203.541794 
	C178.041656,201.992233 175.563751,199.342804 172.584381,196.983490 
	C169.984619,188.847504 175.216812,184.613052 180.385651,180.420959 
	C181.898926,179.193649 183.693069,178.312668 185.684830,177.176697 
z"/>
<path fill="#BD4E2A" opacity="1.000000" stroke="none" 
	d="
M301.448914,243.532410 
	C301.415253,243.476013 301.482605,243.588791 301.448914,243.532410 
z"/>
<path fill="#BD4E2A" opacity="1.000000" stroke="none" 
	d="
M315.448914,247.532410 
	C315.415253,247.476013 315.482605,247.588791 315.448914,247.532410 
z"/>
<path fill="#BD4E2A" opacity="1.000000" stroke="none" 
	d="
M328.448975,251.532410 
	C328.415253,251.476013 328.482666,251.588791 328.448975,251.532410 
z"/>
<path fill="#C2572A" opacity="1.000000" stroke="none" 
	d="
M329.532898,259.550049 
	C329.476715,259.583771 329.589081,259.516296 329.532898,259.550049 
z"/>
<path fill="#C2572A" opacity="1.000000" stroke="none" 
	d="
M294.550903,249.465790 
	C294.584534,249.522003 294.517303,249.409576 294.550903,249.465790 
z"/>
<path fill="#C2572A" opacity="1.000000" stroke="none" 
	d="
M301.449097,251.532135 
	C301.415588,251.475891 301.482635,251.588394 301.449097,251.532135 
z"/>
<path fill="#C2572A" opacity="1.000000" stroke="none" 
	d="
M308.532898,253.550079 
	C308.476746,253.583832 308.589020,253.516342 308.532898,253.550079 
z"/>
<path fill="#C2572A" opacity="1.000000" stroke="none" 
	d="
M315.532898,255.550079 
	C315.476746,255.583832 315.589020,255.516342 315.532898,255.550079 
z"/>
<path fill="#C2572A" opacity="1.000000" stroke="none" 
	d="
M336.467041,261.447968 
	C336.523163,261.414154 336.410919,261.481781 336.467041,261.447968 
z"/>
<path fill="#C2572A" opacity="1.000000" stroke="none" 
	d="
M322.449097,257.532196 
	C322.415558,257.475922 322.482666,257.588470 322.449097,257.532196 
z"/>
</svg>