<svg version="1.1" id="Layer_1" xmlns="http://www.w3.org/2000/svg" xmlns:xlink="http://www.w3.org/1999/xlink" x="0px" y="0px"
	 width="100%" viewBox="-160 -100 1000 700" enable-background="new 0 0 656 544" xml:space="preserve">
<path fill="#0097eb" opacity="1.00000" stroke="#000" stroke-width="5.000000"
	d="
M338.841614,309.346985 
	C331.692505,309.255981 331.667084,309.256012 331.656097,302.829590 
	C331.634460,290.164520 331.526672,277.497650 331.709534,264.835266 
	C331.767151,260.845947 330.122986,259.840118 326.582855,260.450378 
	C317.104828,262.084076 307.659943,261.898651 298.395630,259.249176 
	C294.934723,258.259369 293.767242,259.223450 292.993134,262.647461 
	C288.301697,283.397858 283.408234,304.102814 278.512177,324.806396 
	C277.729553,328.115784 279.145630,329.990356 281.700592,331.864227 
	C299.231842,344.722321 310.411743,361.840820 314.731476,383.131134 
	C318.662018,402.503265 316.308472,421.292816 307.267792,438.944031 
	C302.260193,448.720978 296.529785,458.127380 291.141571,467.710022 
	C290.173187,469.432251 288.907837,471.035858 288.719025,473.387268 
	C290.119171,474.594879 291.666199,475.826263 293.096893,477.180511 
	C300.203583,483.907501 302.359528,493.717072 298.790771,502.878571 
	C295.385803,511.619629 287.098907,517.283875 277.375793,517.330872 
	C264.044434,517.395203 250.712112,517.414856 237.380936,517.334656 
	C212.244644,517.183533 195.850052,491.485992 207.044968,468.914490 
	C214.882858,453.111542 223.633698,437.726776 232.646393,422.552917 
	C238.936905,411.962158 233.310715,402.005463 222.216873,400.281036 
	C219.906448,399.921906 218.575623,400.328369 217.361694,402.426697 
	C204.265335,425.064606 191.108032,447.667450 177.880081,470.228729 
	C176.464523,472.643066 177.007919,473.821075 179.107590,475.517090 
	C187.765244,482.510315 190.567566,492.457764 187.010391,502.319916 
	C183.584686,511.817596 175.213547,517.324402 163.993256,517.354431 
	C151.161621,517.388855 138.329590,517.395325 125.498085,517.337097 
	C99.678856,517.219910 83.626175,491.211884 95.464745,468.215118 
	C109.111610,441.705627 123.190506,415.418610 137.074493,389.031097 
	C140.177292,383.134003 143.184525,377.185455 146.368713,371.332947 
	C147.612381,369.047058 147.565140,367.087555 146.354950,364.776184 
	C140.020477,352.677795 139.208206,340.203308 143.105545,327.049713 
	C150.334991,302.650208 157.092728,278.110870 164.033508,253.625977 
	C164.299973,252.685989 164.427536,251.706619 164.673447,250.477631 
	C162.155472,249.591507 160.394424,250.898712 158.666183,252.036957 
	C146.587646,259.991943 140.681793,271.431000 140.397018,285.686279 
	C140.130798,299.012634 140.356522,312.348511 140.338989,325.680145 
	C140.316483,342.780853 125.976395,357.191681 108.861488,357.342102 
	C90.675888,357.501923 75.891273,343.813782 75.699417,326.357208 
	C75.532776,311.194336 74.678490,295.949768 75.866859,280.878387 
	C79.112679,239.713745 99.576958,209.614182 136.528793,190.981033 
	C146.253235,186.077423 156.640900,183.077316 167.454742,181.633636 
	C168.595810,181.481293 169.785629,181.466415 170.715500,180.048187 
	C164.434921,173.766998 158.367310,167.224167 153.542450,159.604813 
	C118.507652,104.278404 152.153580,30.601585 217.027435,21.747833 
	C236.794220,19.050131 257.022125,19.064974 276.779541,21.860807 
	C294.139679,24.317413 307.119873,40.139992 308.289459,56.748619 
	C309.662720,76.249908 299.343323,93.071342 281.603027,99.002228 
	C276.411407,100.737869 275.805786,103.117172 276.908478,107.780693 
	C278.270813,113.542358 281.245697,118.122452 285.263000,122.272606 
	C296.798309,134.189316 294.382904,148.775436 279.696777,156.257629 
	C278.391510,156.922638 276.533600,157.229553 276.511383,159.043884 
	C276.417999,166.674866 273.337738,173.190002 268.401001,179.715744 
	C279.540405,185.125244 289.789642,191.234329 300.813293,195.179474 
	C315.794403,200.540909 331.025299,188.781296 331.619507,172.563965 
	C331.759766,168.736130 331.645691,164.899017 331.649658,161.066162 
	C331.654510,156.400085 331.733063,151.732651 331.645294,147.068329 
	C331.558868,142.476852 333.819183,138.432327 334.614624,134.097672 
	C334.233978,133.837479 333.997040,133.564819 333.711670,133.497467 
	C330.554810,132.752548 326.022430,135.046051 324.376129,131.988068 
	C322.385559,128.290695 323.718903,123.503899 323.770020,119.185936 
	C323.789307,117.556702 324.768799,116.807358 326.329071,116.756424 
	C327.827362,116.707512 329.326691,116.664230 330.825562,116.664085 
	C384.985565,116.658737 439.145599,116.657028 493.305603,116.660088 
	C500.317169,116.660484 500.325653,116.673660 500.336182,123.836563 
	C500.346924,131.142273 500.338593,138.448013 501.521576,146.698074 
	C517.411987,134.360733 533.302368,122.023407 550.044312,109.024902 
	C533.610229,96.230576 517.698181,83.842743 501.785309,71.454185 
	C499.562042,73.516006 500.425201,75.636017 500.388336,77.490700 
	C500.259186,83.987503 500.222321,90.490059 500.351776,96.986427 
	C500.415680,100.193687 499.194183,101.640312 495.962311,101.351929 
	C494.971039,101.263474 493.963989,101.358948 492.964142,101.358940 
	C438.804138,101.358620 384.644135,101.360161 330.484131,101.351822 
	C323.681458,101.350769 323.612091,101.325783 323.665802,94.436394 
	C323.753082,83.232246 322.347198,84.694527 333.559906,84.681816 
	C381.387299,84.627579 429.214813,84.660393 477.042267,84.654068 
	C483.630859,84.653198 483.642426,84.634056 483.647736,78.004807 
	C483.657135,66.339577 483.635101,54.674294 483.667664,43.009144 
	C483.672699,41.206974 483.336456,39.345970 484.739990,36.522484 
	C515.679871,60.583450 546.411926,84.482773 577.889465,108.961884 
	C546.452393,133.421768 515.799622,157.271408 485.095154,181.161285 
	C483.045258,178.925537 483.692566,176.841690 483.682373,174.964615 
	C483.615295,162.633148 483.558655,150.300125 483.703217,137.970016 
	C483.743439,134.537933 482.643341,133.295883 479.116669,133.309372 
	C451.953796,133.413315 424.790283,133.354095 397.626984,133.370316 
	C396.342072,133.371094 394.931213,133.044754 393.534821,134.543625 
	C398.525696,148.141632 395.679016,162.525818 396.264191,176.704498 
	C396.432800,180.789169 398.737640,180.676682 401.561188,180.672058 
	C419.225616,180.643082 436.892120,180.803680 454.553284,180.562012 
	C459.219116,180.498138 460.815247,182.050415 460.405762,186.564438 
	C460.107941,189.847183 460.347565,193.178696 460.347565,197.096191 
	C464.762360,195.083145 467.108032,191.613785 469.891846,188.759735 
	C472.307739,186.282928 473.981567,186.292160 476.449036,188.800522 
	C489.537140,202.105331 502.731079,215.307449 516.012451,228.419449 
	C518.449890,230.825821 518.803040,232.566895 516.083435,234.891022 
	C513.067749,237.468216 510.266144,240.295898 506.809937,243.541779 
	C511.795288,245.408081 515.924500,244.540878 519.928284,244.594650 
	C523.078125,244.636948 524.394165,245.658066 524.376709,248.941025 
	C524.277344,267.604858 524.254883,286.269775 524.366211,304.933411 
	C524.387878,308.576752 522.779480,309.525909 519.518860,309.381561 
	C515.775146,309.215851 512.018555,309.343109 508.267517,309.343109 
	C508.128326,309.752441 507.989166,310.161743 507.849976,310.571075 
	C510.695801,313.516846 513.446228,316.563507 516.419250,319.374756 
	C518.585632,321.423279 518.680237,323.002502 516.498413,325.165527 
	C503.007568,338.540344 489.575439,351.974976 476.211456,365.476501 
	C474.070190,367.639771 472.423828,367.752441 470.455139,365.452148 
	C467.765808,362.309875 464.985291,359.245636 461.544678,355.357910 
	C459.664642,360.836792 460.391937,364.800171 460.392059,368.654419 
	C460.392151,371.986755 459.395905,373.429138 455.819763,373.405182 
	C437.322968,373.281128 418.824554,373.291229 400.327484,373.396576 
	C396.905945,373.416107 395.469238,372.235779 395.623016,368.761932 
	C395.799164,364.782135 395.663849,360.788544 395.663849,355.477020 
	C391.761566,359.298767 388.546356,362.260498 385.559662,365.437073 
	C383.495178,367.632782 381.961182,367.636353 379.805145,365.453339 
	C366.456116,351.937469 353.026886,338.500305 339.552094,325.109650 
	C337.436188,323.006927 337.138550,321.344757 339.595917,319.389771 
	C342.840393,316.808533 346.000671,314.121429 349.197174,311.479828 
	C348.787109,310.768860 348.377075,310.057922 347.967041,309.346954 
	C345.077759,309.346954 342.188477,309.346954 338.841614,309.346985 
z"/>
<path fill="#7ADB78" opacity="1.000000" stroke="#7ADB78" stroke-width="5.000000"
	d="
M516.086060,396.879211 
	C536.590637,412.827423 556.816528,428.556244 577.902039,444.953522 
	C546.548828,469.364075 515.824707,493.284821 485.019592,517.268555 
	C483.114563,514.832275 483.687653,512.771362 483.678223,510.869202 
	C483.618622,498.871399 483.458771,486.868622 483.744965,474.877350 
	C483.852173,470.385254 482.327545,469.268158 478.018433,469.280548 
	C431.692810,469.413666 385.366669,469.362701 339.040649,469.354645 
	C331.667633,469.353363 331.610291,469.335846 331.663055,462.000549 
	C331.738800,451.464966 330.485779,452.684631 340.994568,452.676086 
	C391.819855,452.634766 442.645203,452.654724 493.470520,452.658844 
	C500.316040,452.659393 500.324860,452.674835 500.334473,459.493378 
	C500.345001,466.941956 500.336914,474.390564 500.336914,481.839142 
	C500.754639,482.116180 501.172394,482.393219 501.590118,482.670258 
	C517.490173,470.316711 533.390259,457.963165 550.070435,445.003540 
	C533.558899,432.163605 517.632996,419.778992 501.707092,407.394409 
	C501.250488,407.575623 500.793915,407.756805 500.337311,407.938019 
	C500.337311,414.333405 500.403046,420.729584 500.322998,427.123962 
	C500.176758,438.805573 501.744995,437.328308 490.339203,437.341187 
	C439.847229,437.398285 389.355164,437.362122 338.863129,437.352631 
	C331.673492,437.351288 331.610382,437.332825 331.663574,430.331604 
	C331.747498,419.278809 330.436798,420.689880 341.156860,420.677124 
	C386.149689,420.623535 431.142639,420.654999 476.135529,420.653168 
	C483.644623,420.652863 483.647491,420.648010 483.649628,412.914429 
	C483.652740,401.582886 483.651276,390.251312 483.651703,378.919769 
	C483.651794,377.133728 483.651703,375.347687 483.651703,373.561646 
	C484.074829,373.282196 484.497925,373.002716 484.921051,372.723267 
	C495.216461,380.702118 505.511902,388.680969 516.086060,396.879211 
z"/>
<path fill="#fff" opacity=".500000" stroke="#fff" stroke-width="5.000000"
	d="
M446.336334,208.907730 
	C444.868378,206.456436 443.569489,203.933868 443.675995,200.971268 
	C443.765503,198.480820 442.754486,197.331680 440.148529,197.357178 
	C432.150787,197.435471 424.151703,197.404968 416.153351,197.369110 
	C413.819244,197.358643 412.657440,198.067352 412.276764,200.716949 
	C410.242615,214.873657 397.418915,220.662735 385.777313,212.597427 
	C383.078674,210.727829 381.608978,210.983826 379.514313,213.173569 
	C374.447449,218.470306 369.243225,223.640335 363.968842,228.731384 
	C361.963318,230.667175 361.605560,232.035904 363.421204,234.571991 
	C371.653534,246.070709 365.897614,259.429321 351.979492,261.258850 
	C349.166809,261.628510 348.294739,262.732819 348.323486,265.371765 
	C348.407074,273.036072 348.412567,280.702789 348.310913,288.366730 
	C348.273651,291.174377 349.069000,292.416626 352.184692,292.783875 
	C365.809998,294.389893 371.688660,307.969238 363.555176,319.167908 
	C361.570587,321.900391 362.013824,323.383423 364.136322,325.435059 
	C369.167328,330.298096 374.183228,335.190308 378.946014,340.311768 
	C381.432037,342.984985 383.139740,343.275146 386.363770,341.022736 
	C397.072540,333.541229 410.811127,339.698273 412.207886,352.500793 
	C412.567780,355.799622 413.726288,356.757416 416.821136,356.697479 
	C424.150391,356.555511 431.486237,356.549042 438.815338,356.693817 
	C442.066772,356.758026 443.396332,355.825195 443.804932,352.270264 
	C445.251099,339.688995 458.936249,333.675629 469.475037,340.707733 
	C470.808014,341.597168 471.727386,343.241486 474.070740,343.160095 
	C480.825439,336.334259 488.233582,329.750427 494.506165,322.336304 
	C494.067017,321.498322 493.951752,321.176575 493.754669,320.916962 
	C484.013123,308.085846 488.695953,295.829407 504.675537,292.686890 
	C507.440887,292.143066 507.647858,290.540192 507.645264,288.415436 
	C507.635925,280.750183 507.553284,273.083344 507.686768,265.420410 
	C507.739288,262.405853 506.559479,261.559723 503.615143,261.240570 
	C490.616119,259.831360 484.499146,245.544525 492.203949,234.957733 
	C492.970978,233.903854 494.211060,233.151001 494.250397,232.335571 
	C486.869263,225.031647 479.819183,218.055298 472.697327,211.007950 
	C461.119293,218.444641 454.593048,218.145294 446.336334,208.907730 
z"/>
<path fill="#fff" opacity=".90000" stroke="#fff" stroke-width="5.000000"
	d="
M213.966110,219.582184 
	C209.645447,217.428299 205.413498,215.065201 200.977173,213.184082 
	C197.147797,211.560303 195.277695,209.344116 195.537903,204.905396 
	C195.834656,199.843262 193.090103,197.491150 187.870987,197.380554 
	C182.873245,197.274628 177.910065,197.581543 172.928787,198.140457 
	C144.859772,201.289902 123.198799,214.935593 107.333702,238.039032 
	C93.294876,258.483002 91.393349,281.677856 92.347893,305.492310 
	C92.460495,308.301483 94.116676,308.669983 96.347954,308.660797 
	C104.008621,308.629272 111.671059,308.558807 119.329575,308.691223 
	C122.600700,308.747742 123.741699,307.401550 123.685272,304.225555 
	C123.558067,297.066711 123.605194,289.903473 123.667488,282.742767 
	C123.938904,251.541077 153.911560,225.116409 184.925858,228.685944 
	C186.477737,228.864563 188.461853,229.043549 188.105957,230.939697 
	C187.139145,236.090576 191.853226,242.621384 184.462021,246.330231 
	C183.677124,246.724091 183.394119,248.322571 183.079910,249.419937 
	C176.353149,272.912933 169.704422,296.428497 162.900406,319.899048 
	C161.838348,323.562653 162.847244,324.724915 166.527588,324.688049 
	C177.684586,324.576202 188.846970,324.494324 199.999741,324.740540 
	C203.942276,324.827545 205.439941,323.491974 206.242889,319.639648 
	C211.901855,292.489410 217.856781,265.401001 223.609238,238.269989 
	C226.285385,225.648087 226.176117,225.624924 213.966110,219.582184 
M248.497650,341.353607 
	C231.500809,341.354034 214.503983,341.354828 197.507141,341.354797 
	C185.842606,341.354767 174.177414,341.422394 162.513885,341.313049 
	C158.760529,341.277893 157.136230,341.982361 157.934799,346.461975 
	C160.436569,360.495880 168.610977,369.117462 182.099716,372.693909 
	C198.006332,376.911377 214.073914,380.525299 229.963257,384.803711 
	C249.546875,390.076843 258.290619,411.316406 248.452560,429.007416 
	C242.057297,440.507507 235.641129,451.996063 229.277206,463.513489 
	C228.523178,464.878143 227.078690,466.132904 228.057175,468.163147 
	C228.639908,468.298950 229.270142,468.572174 229.901245,468.574249 
	C242.565063,468.615723 255.229172,468.592804 267.892670,468.672455 
	C270.230621,468.687134 271.515381,467.579742 272.593658,465.671722 
	C278.903931,454.505768 285.580750,443.536346 291.579773,432.207184 
	C305.983124,405.006439 300.407532,372.016296 278.401520,350.991547 
	C271.487396,344.385742 264.125366,339.568787 253.989243,341.317841 
	C252.532867,341.569122 250.995789,341.352753 248.497650,341.353607 
M369.446381,165.365387 
	C364.116425,165.367004 358.777618,165.557571 353.459503,165.307358 
	C349.570160,165.124359 347.799774,166.432327 348.321838,170.435349 
	C348.471344,171.581635 348.349274,172.764221 348.341187,173.930084 
	C348.168823,198.750443 323.977020,217.964371 299.703339,212.638153 
	C288.275574,210.130630 278.750671,203.402237 268.288330,198.756744 
	C265.919647,197.705002 263.747284,196.067551 259.927765,195.886307 
	C263.994354,208.652740 254.469070,214.395889 247.459229,221.400085 
	C245.015793,223.841522 243.492706,226.447113 242.768280,229.896347 
	C236.690186,258.835876 230.424377,287.735901 224.277664,316.661133 
	C223.748901,319.149292 222.428757,321.652618 223.690384,324.660980 
	C234.217941,324.660980 244.702820,324.358978 255.157135,324.793152 
	C260.109924,324.998871 261.719269,323.056488 262.716492,318.617920 
	C268.870422,291.226929 275.253174,263.887329 281.582336,236.535828 
	C284.331604,224.654892 282.452942,226.489670 293.920593,228.875473 
	C300.439178,230.231613 300.718842,230.436829 299.004395,236.584915 
	C297.905060,240.527222 299.082916,241.969025 302.755432,242.897964 
	C315.764496,246.188599 328.123871,244.159012 340.161804,238.835754 
	C340.779297,238.562683 341.426422,238.356613 341.825775,238.207001 
	C337.337189,231.108719 337.328430,231.099976 342.877777,225.534897 
	C352.286194,216.099899 361.295166,206.210342 371.267975,197.414246 
	C377.864075,191.596420 380.019257,184.928864 379.654083,176.761795 
	C379.624329,176.096863 379.656677,175.429398 379.648560,174.763260 
	C379.518494,164.121719 380.955017,165.486542 369.446381,165.365387 
M192.587799,175.663940 
	C193.442001,176.011932 193.985016,177.234848 195.649261,176.384750 
	C195.649261,168.802689 195.517441,161.003571 195.710800,153.212509 
	C195.794174,149.853271 194.726028,147.955872 191.736679,146.070786 
	C174.838821,135.415024 175.565598,112.959023 193.014618,103.246521 
	C195.275574,101.988022 196.327942,100.413750 197.054733,98.007484 
	C201.320099,83.885384 210.580429,74.505867 224.684067,70.216118 
	C227.712234,69.295082 229.380829,67.721779 230.851257,65.084869 
	C236.984512,54.086002 247.008041,51.719471 257.615967,52.771179 
	C258.375031,52.846436 259.626984,53.250378 259.740021,53.720299 
	C260.842102,58.302460 260.853516,63.067860 259.916656,67.560837 
	C259.245331,70.780327 255.671494,69.084213 253.403931,69.323952 
	C248.176071,69.876656 244.464600,72.976440 244.546753,77.103226 
	C244.628983,81.233650 248.370483,84.446304 253.600433,84.603668 
	C258.261902,84.743919 262.938019,84.801582 267.595245,84.603722 
	C280.999695,84.034233 291.474121,73.753342 291.628754,61.185799 
	C291.781036,48.813206 281.568451,37.733017 268.538269,37.542564 
	C252.904419,37.314056 237.234711,36.531971 221.605377,38.171406 
	C175.014328,43.058575 144.778275,91.741478 160.782471,135.959610 
	C166.819092,152.638245 178.325027,164.796341 192.587799,175.663940 
M238.991043,188.730286 
	C234.360489,187.772598 230.117783,185.970108 226.359787,183.052719 
	C221.703308,179.437805 221.615814,178.736160 225.601883,174.655106 
	C227.346405,172.869003 229.211365,171.193970 230.874649,169.336853 
	C232.689774,167.310242 234.256027,167.329041 236.381439,169.050537 
	C241.047531,172.829895 246.277451,173.715134 251.714310,170.813156 
	C257.252411,167.857117 259.535553,162.888031 259.632568,156.794571 
	C259.690857,153.132904 259.838623,149.457474 259.602295,145.810501 
	C259.353577,141.972092 260.679352,140.130356 264.687164,140.642593 
	C265.669678,140.768173 266.687164,140.718185 267.680420,140.642303 
	C270.226227,140.447769 273.460175,141.597839 274.784698,138.466202 
	C276.051117,135.471832 272.976990,134.122528 271.374084,132.444092 
	C264.189941,124.921509 259.846649,116.154625 259.738220,105.665962 
	C259.699524,101.921211 258.040497,101.094017 254.841461,101.340843 
	C244.625229,102.129082 236.652023,98.138680 231.033707,89.662598 
	C229.131546,86.792900 227.180405,87.165771 224.715454,88.544548 
	C217.089127,92.810341 213.487228,99.606071 212.394379,107.985191 
	C212.031693,110.766045 213.360580,114.053940 211.626297,116.260460 
	C209.738480,118.662323 206.271011,116.884941 203.568939,117.532471 
	C199.608261,118.481606 196.652344,120.741104 196.620819,124.901375 
	C196.589554,129.027237 199.392090,131.517105 203.391083,132.422211 
	C204.510406,132.675552 205.733704,132.771057 206.865189,132.616318 
	C211.409882,131.994766 212.476334,134.116486 212.419235,138.349442 
	C212.210434,153.829102 213.229156,169.382019 212.043152,184.773071 
	C211.165848,196.157913 214.745880,202.340210 225.382751,206.363739 
	C235.427734,210.163361 235.120468,210.975204 241.979080,202.946487 
	C242.086853,202.820312 242.228271,202.721741 242.329498,202.591278 
	C245.391800,198.644806 243.806808,190.237656 238.991043,188.730286 
M155.870255,468.643524 
	C158.768555,468.996429 159.933121,466.964691 161.138062,464.894287 
	C170.010193,449.649445 178.904251,434.417389 187.794235,419.182953 
	C192.299683,411.462097 196.810989,403.744690 201.587280,395.567535 
	C187.565506,390.694000 172.856171,390.092377 160.381821,381.342773 
	C145.101791,410.416962 130.137695,438.889984 114.496475,468.651398 
	C128.878143,468.651398 141.934555,468.651398 155.870255,468.643524 
M170.758316,491.729614 
	C167.943344,487.543915 163.749832,485.505188 158.968994,485.442505 
	C143.342346,485.237457 127.711319,485.359283 112.081993,485.374329 
	C111.114868,485.375244 110.058365,485.237244 109.343155,486.174896 
	C108.917862,494.230286 117.362183,500.300140 124.402641,500.487885 
	C137.694366,500.842346 151.004349,500.751923 164.301682,500.535095 
	C169.449463,500.451172 171.521973,497.530670 170.758316,491.729614 
M272.255341,500.656067 
	C274.732697,500.583801 277.239166,500.914825 279.603027,499.736786 
	C283.939728,497.575745 284.928162,492.456360 281.190369,489.580750 
	C278.333435,487.382843 275.142517,485.380219 271.259094,485.376099 
	C255.950729,485.359772 240.642166,485.323730 225.334076,485.389038 
	C221.160965,485.406860 220.268814,486.926697 222.228104,490.676147 
	C225.713348,497.345825 231.446991,500.554596 238.866302,500.624054 
	C249.681091,500.725281 260.497498,500.653717 272.255341,500.656067 
M107.503380,325.360138 
	C102.650879,325.622894 97.717468,324.741150 92.904953,325.889069 
	C93.942413,334.834839 100.695061,341.006775 108.503586,340.592377 
	C116.399452,340.173340 122.935188,333.460571 122.786209,325.360107 
	C118.035233,325.360107 113.265945,325.360107 107.503380,325.360138 
M370.367523,148.659866 
	C373.140778,148.430603 375.995911,149.191559 378.683167,148.086929 
	C378.959808,140.343353 372.376892,133.680511 364.303619,133.413635 
	C356.235352,133.146927 349.541168,139.559143 349.150696,148.659149 
	C355.906097,148.659149 362.654327,148.659149 370.367523,148.659866 
z"/>
<path fill="#fff" opacity="1.000000" stroke="#fff" stroke-width="5.000000"
	d="
M412.396851,322.902191 
	C390.060974,314.285553 377.661072,294.579590 379.746643,271.456085 
	C381.597290,250.937012 397.526581,233.964371 419.285248,229.327698 
	C447.322754,223.353043 475.956268,246.209549 476.322357,274.857178 
	C476.650269,300.517944 460.923309,320.109863 435.913177,324.804718 
	C428.134277,326.265015 420.337982,325.545258 412.396851,322.902191 
M400.395782,261.965759 
	C396.982361,269.028473 395.344116,276.296509 397.344971,284.144470 
	C401.251068,299.465485 414.997284,309.825653 430.177002,308.386841 
	C451.887482,306.328949 460.156403,288.438049 459.534973,275.353699 
	C458.880157,261.566193 448.834442,249.764954 435.809418,246.548752 
	C421.885559,243.110611 408.823883,248.614807 400.395782,261.965759 
z"/>
</svg>