<?xml version="1.0" standalone="no"?>
<!DOCTYPE svg PUBLIC "-//W3C//DTD SVG 20010904//EN"
 "http://www.w3.org/TR/2001/REC-SVG-20010904/DTD/svg10.dtd">
<svg version="1.0" xmlns="http://www.w3.org/2000/svg"
 width="846.000000pt" height="876.000000pt" viewBox="0 0 846.000000 876.000000"
 preserveAspectRatio="xMidYMid meet">
<metadata>
Created by potrace 1.10, written by Peter Selinger 2001-2011
</metadata>
<g transform="translate(0.000000,876.000000) scale(0.050000,-0.050000)"
fill="#000000" stroke="none">
<path d="M5490 17498 c-1516 -120 -2437 -1798 -1750 -3188 1014 -2055 4119
-1381 4194 910 45 1372 -1047 2389 -2444 2278z m750 -193 c83 -23 177 -52 210
-65 l60 -23 -78 -41 c-59 -30 -110 -39 -210 -35 -73 3 -144 3 -158 2 -33 -4
-205 -357 -191 -394 28 -73 274 -119 442 -82 151 32 162 32 266 -4 60 -20 197
-54 304 -74 l194 -36 89 63 c111 80 91 88 213 -77 121 -163 125 -152 -87 -222
l-164 -54 -202 32 -202 32 -56 88 c-93 148 -87 145 -357 145 l-244 0 -137
-138 -138 -139 37 -274 c45 -334 32 -318 365 -458 l266 -113 143 39 143 40 82
-57 82 -56 -8 -127 c-7 -124 -4 -134 144 -433 149 -301 152 -308 152 -459 l0
-154 93 -94 93 -95 -158 -163 c-980 -1009 -2572 -829 -3293 372 -244 406 -333
940 -243 1453 37 212 49 224 88 85 25 -87 40 -102 224 -224 l197 -132 -50 -52
c-88 -92 -74 -305 35 -511 l84 -159 130 -25 c249 -49 220 4 220 -402 l0 -356
72 -179 c84 -211 83 -211 240 -266 193 -68 212 -50 206 195 l-5 172 143 108
144 108 0 112 0 111 149 151 149 150 43 215 c54 269 51 275 -151 275 l-146 0
-106 180 -107 180 -262 0 -261 0 -69 145 c-81 171 -115 186 -211 93 l-68 -66
0 92 c0 80 -9 100 -70 153 -53 47 -70 77 -70 128 l0 66 237 31 c357 48 581
185 742 454 107 178 114 185 213 214 123 35 131 44 184 206 56 169 38 188
-218 223 -181 26 -335 70 -314 92 90 90 870 113 1156 34z m-1229 -166 c69 -47
132 -68 273 -91 213 -34 202 -29 180 -88 -12 -32 -53 -59 -131 -88 -110 -41
-117 -48 -219 -222 -157 -268 -339 -378 -714 -431 -320 -45 -300 -30 -300
-216 0 -151 2 -157 70 -223 53 -51 70 -84 70 -136 l0 -67 -154 107 -153 108
-56 167 -56 167 84 160 c177 332 504 659 832 832 184 97 166 96 274 21z m1836
-106 c90 -59 198 -139 241 -176 l78 -69 -64 -41 -64 -41 -204 46 c-112 25
-242 59 -288 76 -78 27 -96 27 -226 -9 -220 -61 -287 -31 -220 100 l41 81 134
1 c114 1 156 12 265 69 72 37 133 68 137 69 4 1 80 -47 170 -106z m-267 -738
l70 -103 190 -35 c267 -48 312 -46 530 31 l195 67 57 -127 c176 -387 220 -922
111 -1338 -53 -201 -234 -610 -271 -610 -53 0 -102 118 -102 248 0 125 -9 150
-150 432 -149 297 -150 301 -150 458 l0 159 -131 91 c-146 103 -159 105 -335
61 l-124 -31 -230 98 -230 98 -28 224 -28 224 77 79 77 79 201 -1 201 0 70
-104z m-2000 -875 l61 -120 260 0 260 0 54 -92 c170 -284 163 -277 298 -284
l122 -6 -26 -121 c-23 -113 -37 -134 -177 -275 l-152 -153 0 -109 0 -110 -145
-110 -145 -111 -6 -154 c-6 -165 -7 -166 -63 -135 -103 54 -161 316 -161 719
0 436 16 404 -222 451 l-171 34 -64 128 c-102 208 -92 268 71 432 161 162 133
160 206 16z"/>
<path d="M1870 16020 c-639 -132 -1012 -816 -770 -1410 9 -22 45 -116 81 -210
111 -291 311 -679 619 -1200 289 -491 341 -476 715 200 535 968 692 1384 646
1711 -87 624 -674 1037 -1291 909z m578 -330 c305 -144 494 -502 432 -818 -48
-246 -262 -718 -578 -1280 -213 -377 -209 -372 -247 -299 -42 80 -117 215
-205 367 -211 367 -447 878 -517 1123 -182 630 510 1193 1115 907z"/>
<path d="M1911 15480 c-366 -144 -464 -589 -189 -864 295 -294 771 -170 888
232 118 404 -305 785 -699 632z m305 -248 c252 -130 176 -478 -108 -495 -270
-15 -374 343 -141 485 74 45 174 49 249 10z"/>
<path d="M6960 12928 c-923 -174 -1370 -937 -1069 -1821 102 -298 512 -1162
668 -1407 10 -16 102 -169 204 -340 378 -635 350 -641 833 180 571 969 875
1723 860 2128 -30 755 -788 1393 -1496 1260z m454 -300 c620 -178 953 -860
700 -1432 -16 -36 -59 -142 -95 -236 -84 -216 -454 -946 -616 -1214 -68 -112
-123 -208 -123 -214 0 -5 -33 -64 -73 -132 -85 -143 -85 -143 -203 70 -43 77
-125 221 -183 320 -160 272 -570 1100 -629 1270 -29 83 -61 168 -71 190 -337
752 472 1614 1293 1378z"/>
<path d="M6990 12272 c-706 -175 -743 -1121 -51 -1321 605 -174 1105 499 761
1026 -118 181 -428 347 -599 321 -6 -1 -56 -13 -111 -26z m314 -293 c386 -199
253 -792 -176 -782 -338 8 -528 373 -337 648 103 148 357 214 513 134z"/>
<path d="M2047 12652 l-56 -48 46 -144 c88 -273 335 -454 432 -316 53 76 37
129 -68 235 -61 61 -108 131 -124 182 -41 138 -133 175 -230 91z"/>
<path d="M2861 12225 c-212 -7 -241 -21 -241 -116 0 -138 180 -181 550 -132
l100 13 6 84 c8 111 -45 168 -151 162 -41 -2 -160 -7 -264 -11z"/>
<path d="M3443 12194 c-96 -103 -30 -198 156 -224 60 -8 158 -32 218 -52 158
-55 263 -14 263 102 0 146 -527 290 -637 174z"/>
<path d="M4191 11916 c-51 -74 -37 -115 87 -248 66 -69 131 -151 145 -181 62
-128 221 -129 265 -2 64 182 -393 579 -497 431z"/>
<path d="M4581 11246 c-35 -44 -42 -72 -33 -131 7 -41 18 -156 25 -256 11
-152 20 -186 55 -210 65 -46 146 -36 184 22 47 71 24 493 -30 569 -53 74 -146
77 -201 6z"/>
<path d="M1460 10969 c-170 -45 -378 -156 -504 -269 -147 -131 -960 -1155
-952 -1198 6 -28 52 -33 350 -37 l344 -6 112 141 c115 144 132 205 59 216 -29
4 -65 -27 -129 -114 l-90 -120 -236 -1 -235 -1 128 155 c70 85 245 303 389
483 346 433 499 554 796 632 92 24 1048 44 1453 31 9 -1 -50 -78 -130 -172
l-145 -171 -530 -5 c-591 -5 -656 -18 -833 -159 -135 -108 -371 -409 -357
-455 24 -75 83 -40 219 131 275 348 309 360 1009 360 l548 0 208 257 c118 146
205 271 202 290 -9 47 -1502 58 -1676 12z"/>
<path d="M2770 10271 c-319 -400 -580 -745 -580 -765 0 -33 27 -36 350 -41
l350 -4 580 729 c319 401 580 745 580 764 0 33 -29 36 -350 41 l-350 5 -580
-729z m1087 610 c-4 -10 -236 -307 -517 -659 l-510 -641 -226 0 c-125 -1 -222
7 -216 16 6 10 237 300 513 645 l502 628 214 11 c117 6 221 13 230 15 9 2 13
-4 10 -15z"/>
<path d="M4605 10469 c-86 -60 -92 -96 -86 -505 2 -138 140 -206 233 -114 54
54 55 548 1 603 -41 41 -103 48 -148 16z"/>
<path d="M1636 10272 c-148 -40 -221 -104 -451 -390 -362 -452 -368 -422 94
-422 l335 0 94 120 95 120 183 1 184 0 180 230 c249 319 240 303 210 339 -33
40 -778 41 -924 2z m741 -108 c-4 -9 -65 -90 -137 -180 l-130 -163 -184 -1
-183 0 -95 -120 -94 -120 -230 0 c-217 0 -229 2 -200 35 17 19 108 130 202
247 181 223 227 263 336 295 82 23 724 30 715 7z"/>
<path d="M4755 9709 c-124 -67 -100 -159 95 -354 177 -179 247 -215 320 -167
95 62 71 166 -66 294 -64 59 -138 136 -165 171 -61 78 -113 94 -184 56z"/>
<path d="M5372 9222 c-133 -147 156 -322 490 -298 178 13 185 204 8 241 -44 9
-154 35 -244 56 -203 48 -212 48 -254 1z"/>
<path d="M6673 9146 c-7 -7 -109 -11 -227 -9 -207 3 -215 2 -270 -51 -193
-185 174 -320 543 -199 112 36 112 194 0 253 -18 10 -39 13 -46 6z"/>
</g>
</svg>
