<svg version="1.1" id="Layer_1" xmlns="http://www.w3.org/2000/svg" xmlns:xlink="http://www.w3.org/1999/xlink" x="0px" y="0px"
	 width="100%" viewBox="0 0 760 560" enable-background="new 0 0 760 560" xml:space="preserve">
<path fill="#0097eb" opacity="1.00000" stroke="#fff" stroke-linecap="round" stroke-linejoin="round" stroke-width="5.000000"
	d="
M509.499969,392.500000 
	C509.666656,390.666656 509.974152,388.833649 509.978088,386.999939 
	C510.015076,369.833374 510.000000,352.666656 510.000000,335.500000 
	C510.000000,328.000000 510.000000,320.500000 510.000000,313.000000 
	C510.000000,289.166656 510.020203,265.333313 509.986115,241.500015 
	C509.977295,235.334442 506.601379,232.005295 500.500000,232.004776 
	C418.333344,231.997650 336.166656,231.997070 254.000000,232.005371 
	C247.166870,232.006058 244.000000,235.208160 244.000000,242.000000 
	C244.000000,290.166656 244.005997,338.333344 243.978851,386.500000 
	C243.977722,388.500092 243.666656,390.500000 243.499985,392.500000 
"/>
<path fill="#0097eb" opacity="1.000000" stroke="#fff" stroke-linecap="round" stroke-linejoin="round" stroke-width="5.000000"
	d="
M243.500000,393.000000 
	C236.020828,394.103851 228.496094,393.448853 221.000549,393.405121 
	C217.102631,393.382416 215.736969,394.844086 215.987518,398.500854 
	C216.412903,404.709595 214.574081,411.249451 219.916046,416.584076 
	C222.717865,419.382050 225.550034,421.020477 229.500000,421.019470 
	C327.666656,420.994659 425.833344,420.977600 524.000000,421.042572 
	C531.841797,421.047760 536.210754,415.387299 537.522583,409.505035 
	C538.505493,405.097595 537.031555,400.840912 536.958374,396.500702 
	C536.915527,393.964142 534.892395,393.983124 532.999939,393.991638 
	C527.666748,394.015594 522.333313,394.000000 517.000000,394.000000 
	C481.500000,394.000000 445.999969,394.015320 410.500031,393.971039 
	C407.642303,393.967499 405.084747,393.926147 403.452118,396.974365 
	C401.574554,400.479828 398.275360,401.100006 394.499359,401.055542 
	C382.001068,400.908386 369.497009,400.845917 357.001740,401.089203 
	C352.990021,401.167358 349.560364,400.372772 347.596588,396.944672 
	C345.819366,393.842255 343.308929,393.983521 340.500000,393.985687 
	C310.333344,394.008667 280.166656,393.997742 250.000000,394.004974 
	C247.937988,394.005463 245.860733,394.168915 244.000000,393.000000 
"/>
<path fill="#0097eb" opacity="1.000000" stroke="#fff" stroke-linecap="round" stroke-linejoin="round" stroke-width="5.000000"
	d="
M137.000000,366.500000 
	C134.815689,367.695435 132.506607,368.094757 129.999130,368.039337 
	C124.335236,367.914154 118.666664,368.000000 113.000000,368.000000 
	C101.992241,368.000000 93.000000,376.992249 93.000000,388.000000 
	C93.000000,391.333344 93.214218,394.684113 92.944351,397.995453 
	C92.625832,401.903809 94.106979,403.117523 98.000809,403.075928 
	C114.665573,402.897797 131.333328,403.000000 148.000000,403.000000 
	C160.333328,403.000000 172.666718,403.020569 184.999969,402.990265 
	C190.195541,402.977478 190.644424,402.645020 190.458084,397.501526 
	C190.205673,390.534790 191.594391,383.422211 187.099213,376.931305 
	C183.066376,371.108002 177.924591,368.284729 171.001572,367.965820 
	C163.834824,367.635681 156.625595,368.927490 149.477509,367.087402 
	C147.066086,366.466675 144.650345,368.413513 141.991852,368.061523 
	C139.931671,367.788757 137.808777,367.696228 137.035263,365.487640 
	C132.554260,352.692993 125.917831,340.870575 120.471977,328.512360 
	C113.252335,312.128906 105.887718,295.808380 98.418335,279.537476 
	C97.646294,277.855743 96.981636,276.322174 96.998909,274.625336 
	C100.021042,271.856995 104.288719,271.238495 106.188110,266.576630 
	C109.685692,257.992218 108.048134,250.134109 100.500000,245.500000 
	C93.173561,241.001999 79.550392,248.288818 79.000000,257.000000 
	C78.382797,266.768555 83.044067,272.411224 92.996902,274.019196 
	C94.186371,274.211365 95.333336,274.666656 96.500008,274.999969 
"/>
<path fill="#0097eb" opacity="1.000000" stroke="#fff" stroke-linecap="round" stroke-linejoin="round" stroke-width="5.000000"
	d="
M201.500000,233.000000 
	C208.672394,228.229874 213.893387,221.362274 219.875763,215.375854 
	C232.371704,202.871521 244.633057,190.135727 257.477203,177.975937 
	C262.781342,172.954437 267.852539,167.685608 272.982544,162.482803 
	C273.922333,161.529678 274.645264,160.308960 273.492767,159.006409 
	C266.824280,151.469528 260.475433,142.814011 250.425018,140.299713 
	C240.861160,137.907135 231.813797,140.270477 224.851700,148.880081 
	C219.251144,155.805969 212.560532,161.917114 205.934418,167.927704 
	C199.642075,173.635529 195.169144,181.385132 187.000000,185.000000 
	C185.176239,190.234894 181.003616,194.448624 180.921265,200.498932 
	C180.826508,207.459595 181.960464,213.837646 187.008850,218.991333 
	C191.132080,223.200546 195.280441,227.388519 199.533279,231.465286 
	C200.756790,232.638138 201.858398,233.654129 201.500000,235.500000 
"/>
<path fill="#0097eb" opacity="1.000000" stroke="#fff" stroke-linecap="round" stroke-linejoin="round" stroke-width="3.000000"
	d="
M511.500000,329.000000 
	C543.500000,329.000000 575.503723,328.735748 607.497314,329.189392 
	C615.304077,329.300110 623.263062,327.401001 631.000000,330.000000 
	C636.824768,326.512085 643.023499,330.009094 649.009583,329.060547 
	C651.786682,328.620514 654.532288,329.877533 657.539978,329.169983 
	C660.237732,328.535370 661.080933,327.529663 661.025940,324.999451 
	C660.931824,320.668152 660.939453,316.332214 661.020142,312.000366 
	C661.079102,308.836517 659.903931,307.268402 656.497986,307.465332 
	C649.840637,307.850311 643.121216,307.923798 636.505005,307.776489 
	C625.000000,307.520294 613.499329,307.715271 601.999512,307.530090 
	C599.172913,307.484589 597.303162,305.291412 594.519165,304.872650 
	C586.604797,303.682220 578.923096,303.845001 571.527100,307.062347 
	C569.946411,307.750031 568.488953,307.460327 566.999878,307.464661 
	C548.500061,307.518677 530.000000,307.500000 511.500000,307.500000 
"/>
<path fill="#7ADB78" opacity="1.000000" stroke="#fff" stroke-linecap="round" stroke-linejoin="round" stroke-width="3.000000"
	d="
M490.000000,451.500000 
	C491.502686,455.099274 494.471069,457.019165 498.010651,457.959930 
	C504.544647,459.696503 511.072021,460.740540 518.001892,460.659698 
	C549.330933,460.294250 580.666687,460.500000 612.000000,460.500000 
	C613.750488,460.500000 615.500977,460.500000 617.500000,460.500000 
	C617.500000,454.341400 617.500000,448.424286 617.500000,442.000000 
	C615.834656,442.000000 614.167358,442.000000 612.500000,442.000000 
	C578.833313,442.000000 545.165588,441.853180 511.500854,442.110779 
	C503.788025,442.169800 496.023834,443.470947 490.507660,450.006470 
	C489.682892,450.983612 489.029175,451.243286 487.498474,451.233215 
	C485.222351,451.218201 482.833893,451.341156 480.500000,451.500000 
"/>
<path fill="#7ADB78" opacity="1.000000" stroke="#fff" stroke-linecap="round" stroke-linejoin="round" stroke-width="5.000000"
	d="
M507.500000,451.500000 
	C543.833313,451.500000 580.166687,451.500000 616.500000,451.500000 
"/>
<path fill="#0097eb" opacity="1.000000" stroke="#fff" stroke-linecap="round" stroke-linejoin="round" stroke-width="3.000000"
	d="
M539.000000,404.000000 
	C565.333313,404.000000 591.672058,404.303680 617.997131,403.836700 
	C627.318054,403.671356 636.656128,404.068726 646.030273,403.491028 
	C652.447144,403.095581 659.346680,403.429504 665.998657,404.015411 
	C669.755798,404.346375 671.116150,402.754303 671.057251,398.999115 
	C670.892639,388.501678 670.897522,377.998444 671.058472,367.500885 
	C671.111084,364.070587 669.925781,362.585175 666.499756,362.997925 
	C659.856934,363.798340 653.261414,361.974792 646.401611,363.579529 
	C643.081726,364.356171 638.489197,363.398132 634.504883,362.955872 
	C627.848633,362.217072 621.047607,364.714355 614.500000,362.000000 
	C580.185974,364.319641 545.830200,362.343384 511.500000,363.000000 
"/>
<path fill="#0097eb" opacity="1.000000" stroke="#fff" stroke-linecap="round" stroke-linejoin="round" stroke-width="3.000000"
	d="
M105.000000,271.000000 
	C110.700478,279.341736 113.988541,288.835419 118.061584,297.972534 
	C124.496918,312.409027 131.462265,326.608612 137.950882,341.022125 
	C141.749481,349.460144 146.808777,357.363525 149.000000,366.500000 
"/>
<path fill="#0097eb" opacity="1.000000" stroke="#fff" stroke-linecap="round" stroke-linejoin="round" stroke-width="3.000000"
	d="
M179.000000,180.000000 
	C171.166656,188.000000 163.423096,196.090561 155.472000,203.971741 
	C148.942673,210.443649 141.692688,216.248505 135.632782,223.117157 
	C129.525558,230.039474 122.213394,235.715057 116.408783,242.926575 
	C113.779831,246.192719 110.166649,248.666656 106.999985,251.499985 
"/>
<path fill="#7ADB78" opacity="1.000000" stroke="#fff" stroke-linecap="round" stroke-linejoin="round" stroke-width="3.000000"
	d="
M598.000000,303.000000 
	C607.755127,296.247375 613.848083,286.979919 616.463257,275.491638 
	C618.524475,266.437073 617.831787,257.706909 611.981262,250.014267 
	C608.575928,245.536789 599.980469,243.462509 593.508057,245.525345 
	C589.017761,246.956451 584.440674,247.407913 580.018982,245.942780 
	C563.913818,240.606323 555.350708,253.502213 555.035522,264.501007 
	C554.599182,279.728851 560.442627,292.121674 572.525818,301.466583 
	C573.498047,302.218475 574.501465,302.831879 575.000000,304.000000 
"/>
<path fill="#0097eb" opacity="1.000000" stroke="#fff" stroke-linecap="round" stroke-linejoin="round" stroke-width="5.000000"
	d="
M186.500000,184.500000 
	C183.303772,181.029572 178.960541,178.819855 176.411133,174.553101 
	C174.349365,171.102463 171.878235,171.374496 168.933762,174.436295 
	C156.926071,186.922516 144.721848,199.221756 132.481979,211.482010 
	C123.239731,220.739609 113.795341,229.795242 104.533546,239.033630 
	C102.779076,240.783676 100.259857,242.069901 100.000000,245.000000 
"/>
<path fill="#0097eb" opacity="1.000000" stroke="#fff" stroke-linecap="round" stroke-linejoin="round" stroke-width="5.000000"
	d="
M226.000000,146.000000 
	C221.432846,140.233826 216.211929,134.985672 210.403412,130.628784 
	C201.935394,124.277069 189.407990,124.498322 180.942810,131.934906 
	C176.227097,136.077621 171.380325,140.311646 169.203949,146.076996 
	C166.778885,152.501144 166.806961,159.470749 169.991547,166.004120 
	C170.848160,167.761475 172.090668,169.391266 172.000000,171.500000 
"/>
<path fill="#0097eb" opacity="1.000000" stroke="#fff" stroke-linecap="round" stroke-linejoin="round" stroke-width="3.000000"
	d="
M625.000000,364.500000 
	C625.000000,377.166656 625.000000,389.833344 625.000000,402.500000 
"/>
<path fill="#0097eb" opacity="1.000000" stroke="#fff" stroke-linecap="round" stroke-linejoin="round" stroke-width="3.000000"
	d="
M646.000000,364.500000 
	C646.000000,377.166656 646.000000,389.833344 646.000000,402.500000 
"/>
<path fill="#0097eb" opacity="1.000000" stroke="#fff" stroke-linecap="round" stroke-linejoin="round" stroke-width="3.000000"
	d="
M631.000000,330.500000 
	C631.000000,340.833344 631.000000,351.166656 631.000000,361.500000 
"/>
<path fill="#0097eb" opacity="1.000000" stroke="#fff" stroke-linecap="round" stroke-linejoin="round" stroke-width="3.000000"
	d="
M614.000000,330.500000 
	C614.920044,340.821167 614.338379,351.166595 614.500000,361.500000 
"/>
<path fill="#0097eb" opacity="1.000000" stroke="#fff" stroke-linecap="round" stroke-linejoin="round" stroke-width="3.000000"
	d="
M654.000000,330.500000 
	C654.000000,340.833344 654.000000,351.166656 654.000000,361.500000 
"/>
<path fill="#0097eb" opacity="1.000000" stroke="#fff" stroke-linecap="round" stroke-linejoin="round" stroke-width="3.000000"
	d="
M635.999939,309.000000 
	C636.166626,315.166656 636.333313,321.333344 636.499939,327.500000 
"/>
<path fill="#0097eb" opacity="1.000000" stroke="#fff" stroke-linecap="round" stroke-linejoin="round" stroke-width="3.000000"
	d="
M583.000000,227.500000 
	C583.564270,234.727463 587.497742,241.484802 586.000000,249.000000 
"/>
<path fill="#0097eb" opacity="1.000000" stroke="#fff" stroke-linecap="round" stroke-linejoin="round" stroke-width="3.000000"
	d="
M505.500000,444.000000 
	C506.535278,448.833344 506.847351,453.666656 505.500000,458.500000 
"/>
</svg>