<svg version="1.1" id="Layer_1" xmlns="http://www.w3.org/2000/svg" xmlns:xlink="http://www.w3.org/1999/xlink" x="0px" y="0px"
	 width="100%" viewBox="-40 0 480 350" enable-background="new 0 0 352 320" xml:space="preserve">
	<!-- Climber -->
<path fill="#fff" opacity="1.000000" stroke="none" 
	d="
M171.274597,175.879791 
	C169.874710,173.930069 168.188385,171.468948 169.904938,170.268906 
	C172.614609,168.374649 175.151001,165.027252 178.747971,165.584671 
	C181.115326,165.951523 184.597412,165.337616 185.865372,167.999069 
	C187.240875,170.886276 186.260635,173.871414 183.760513,176.124771 
	C182.248535,177.487488 182.243652,179.344620 182.048843,181.178528 
	C181.504242,186.304977 180.869461,191.421783 180.287552,196.544357 
	C179.940277,199.601425 177.794586,201.084717 175.327576,202.308533 
	C171.003067,204.453781 166.687012,206.616165 162.356064,208.748276 
	C160.954971,209.438004 159.488434,210.269089 159.656204,211.986710 
	C160.343506,219.022781 159.446289,226.244385 161.900436,233.746994 
	C165.418213,232.269684 168.569183,230.878525 171.771011,229.616379 
	C177.827042,227.229141 181.367477,228.720367 183.553116,234.739227 
	C187.016739,244.277359 190.439819,253.832504 193.695267,263.443054 
	C195.510910,268.803131 194.280777,271.923615 190.271240,273.414581 
	C186.086105,274.970825 182.738358,273.134125 180.767075,267.908112 
	C178.417542,261.679321 176.133591,255.419403 174.068344,249.092316 
	C172.933380,245.615311 171.303894,244.568665 167.815338,246.222137 
	C163.609756,248.215393 159.228088,249.839935 154.905594,251.581787 
	C153.835464,252.013016 152.424438,252.884979 151.637878,252.526917 
	C146.052887,249.984375 143.394409,254.724152 139.529495,256.850525 
	C130.331604,261.910950 126.980782,269.649078 127.084526,279.766357 
	C127.135139,284.702271 126.231331,289.708069 125.242882,294.577332 
	C124.289963,299.271576 120.536591,301.624084 116.371796,300.331970 
	C112.323341,299.075958 110.638741,295.905762 111.305214,291.770386 
	C112.840576,282.243652 114.023155,272.676910 114.772598,263.060944 
	C115.090340,258.984100 117.257584,255.949585 120.559135,254.248444 
	C131.291092,248.718796 133.526169,239.746429 131.685547,228.834412 
	C131.278564,226.421570 131.067169,223.975739 130.232727,221.134048 
	C125.425201,230.157257 116.400925,232.309677 108.255745,235.860809 
	C106.362778,236.686111 104.567406,237.289825 104.620033,240.375992 
	C104.677841,243.765640 99.037086,248.034225 95.392815,248.389023 
	C92.270317,248.693008 90.378754,247.038773 89.060631,244.476349 
	C87.319443,241.091476 87.830284,237.723190 90.447021,235.296082 
	C92.949226,232.975235 96.139656,231.388382 99.064270,229.536819 
	C99.755890,229.098953 100.574890,228.828018 101.368248,228.590271 
	C112.436836,225.273117 121.428276,219.082382 127.642532,209.242203 
	C130.648544,204.482239 134.896790,202.870270 140.294586,202.852219 
	C149.384140,202.821793 158.015213,201.002060 166.127167,196.485367 
	C169.884216,194.393463 172.334366,192.323120 171.743286,187.726410 
	C171.249939,183.889679 174.328430,179.969849 171.274597,175.879791 
z"/>
<!-- hockey player -->
<path fill="#0097eb" opacity="1.000000" stroke="none" 
	d="
M133.295456,143.076706 
	C133.318863,147.486694 131.155594,149.760284 127.372337,150.235931 
	C123.585396,150.712036 121.057472,148.814178 119.667870,145.261230 
	C117.181709,138.904602 114.046478,132.734116 112.255951,126.192039 
	C110.434563,119.537209 106.170975,116.261574 100.175842,114.302963 
	C100.055634,114.570587 99.769943,114.902702 99.844643,115.094292 
	C103.639450,124.826775 103.539711,125.240005 94.738693,130.574402 
	C85.338753,136.271805 75.897476,141.901154 66.462135,147.539917 
	C65.179100,148.306686 63.885292,149.118240 62.493565,149.628265 
	C58.671314,151.029053 55.547848,149.975296 53.596069,146.379471 
	C51.709759,142.904251 53.260590,140.105194 56.188629,138.261688 
	C62.950897,134.004089 69.865517,129.987717 76.733894,125.899628 
	C86.568024,120.046341 86.580269,120.053253 81.719093,109.973167 
	C79.259460,104.872917 76.732857,99.804642 74.307472,94.688278 
	C71.314125,88.373772 72.566620,83.855537 78.814308,81.154350 
	C88.345787,77.033424 96.455673,71.566551 102.516968,62.797558 
	C106.871643,56.497570 114.535477,55.338837 119.719185,59.018757 
	C122.513252,61.002262 124.353996,63.363102 122.145386,67.016876 
	C120.534439,69.681908 121.099670,72.321053 122.298080,75.115799 
	C124.285400,79.750275 122.657257,82.552452 117.621666,83.803947 
	C116.661179,86.750473 118.090790,88.859901 120.073807,90.824867 
	C123.741486,94.459190 128.082657,97.659096 130.884552,101.876266 
	C139.563431,114.938927 151.193542,125.222824 161.965836,136.325684 
	C163.340637,137.742676 164.524017,139.424820 166.470276,140.156052 
	C166.815094,140.065247 167.247955,140.086487 167.411499,139.886978 
	C168.821609,138.166733 169.539780,135.455185 172.604004,136.103851 
	C174.439072,136.492310 175.500244,137.858765 175.630859,139.655594 
	C175.832062,142.423111 175.191254,144.957718 172.724960,146.678925 
	C169.043777,149.247955 163.882416,148.327026 159.688110,144.013809 
	C153.185043,137.326416 146.614395,130.682236 140.485855,123.658951 
	C133.144745,115.246063 124.323936,108.435188 116.320663,100.751610 
	C111.960670,96.565765 104.838844,96.802864 99.660492,93.420197 
	C97.119781,91.760521 96.196243,93.636749 94.754784,95.632629 
	C102.093452,99.660820 109.167496,103.631744 116.333763,107.428596 
	C118.774101,108.721558 120.938217,110.143059 121.952431,112.806259 
	C125.739784,122.751419 129.496735,132.708160 133.295456,143.076706 
z"/>
<!-- lifter -->
<path fill="#7ADB78" opacity="1.000000" stroke="none" 
	d="
M248.113495,194.337219 
	C249.252365,187.066605 248.500000,180.288834 247.805542,173.497528 
	C247.568802,171.182526 246.208115,169.852402 244.383041,168.943527 
	C231.311234,162.433807 229.399094,149.520996 226.217361,137.354263 
	C225.654160,135.200684 226.396713,133.312622 228.561813,132.419495 
	C230.733795,131.523529 232.214310,132.996719 233.054474,134.593750 
	C235.609131,139.449692 237.694855,144.559097 240.362289,149.347473 
	C245.067032,157.793045 252.594864,161.810745 262.131683,161.687851 
	C271.113373,161.572128 278.092255,157.439957 282.530762,149.623367 
	C284.988373,145.295395 286.731995,140.567871 288.980316,136.112747 
	C290.102264,133.889694 291.577179,131.322083 294.656158,132.562241 
	C297.508453,133.711090 297.493225,136.373428 296.713867,138.973190 
	C294.899261,145.026337 293.344299,151.178680 291.137115,157.086441 
	C289.173279,162.342697 284.163727,165.081894 279.823730,167.992035 
	C276.272461,170.373322 275.090424,172.982895 275.366180,177.072144 
	C276.763733,197.797333 278.772522,218.448334 281.931946,238.986877 
	C282.514648,242.774841 284.239807,247.975128 278.861237,249.102432 
	C273.265869,250.275192 273.186920,244.719208 272.342041,241.011963 
	C269.939331,230.469330 267.773193,219.872910 265.402008,209.322800 
	C264.992889,207.502365 265.153564,204.709686 262.577789,204.613968 
	C259.722015,204.507828 259.654053,207.315201 259.210876,209.369431 
	C256.898254,220.089264 254.716156,230.838165 252.297195,241.533646 
	C251.520157,244.969391 251.120056,249.798569 246.123764,249.039932 
	C240.752396,248.224319 241.954056,243.666824 242.576965,239.818619 
	C244.994736,224.882034 246.680359,209.855148 248.113495,194.337219 
z"/>
<!-- bar -->
<path fill="#fff" opacity="1.000000" stroke="none" 
	d="
M254.328491,125.419922 
	C244.103470,126.504738 234.366455,127.653290 224.806961,130.060120 
	C221.197632,130.968857 219.715240,132.421341 220.822968,136.334229 
	C222.000854,140.494934 219.784393,142.968857 215.802948,144.041168 
	C206.470673,146.554642 204.673782,145.451859 202.540512,135.762665 
	C201.790543,132.356354 201.248779,128.903259 200.462265,125.506165 
	C199.516663,121.421913 200.138412,118.182327 204.657074,116.808426 
	C212.566833,114.403473 215.348297,115.171921 217.713959,120.365280 
	C218.052765,121.109032 218.342361,121.875191 218.862610,123.133934 
	C247.190887,116.100792 275.584106,115.012970 303.837494,123.582108 
	C304.410278,122.732704 304.878174,122.240845 305.115753,121.655510 
	C307.708710,115.268280 316.957367,113.524399 321.674225,118.556732 
	C322.882996,119.846336 323.514587,121.423218 323.198456,123.135475 
	C322.143524,128.849533 321.242859,134.614838 319.749786,140.218414 
	C318.419067,145.212662 316.099243,145.774445 308.389771,144.275726 
	C304.152191,143.451935 301.581573,141.392365 302.535309,136.773224 
	C303.390350,132.632263 301.291260,131.266296 297.746002,130.228317 
	C283.691071,126.113342 269.359497,124.805672 254.328491,125.419922 
z"/>
<!-- swimmer arm -->
<path fill="#fff" opacity="1.000000" stroke="none" 
	d="
M245.972687,41.879978 
	C255.239380,48.665882 261.214813,57.577980 265.955597,67.429337 
	C266.966949,69.530884 267.476654,71.481895 264.199097,72.349289 
	C250.028641,76.099403 235.853210,79.698448 220.980240,78.268570 
	C219.860260,78.160896 218.624207,78.430733 217.258743,76.781937 
	C224.636917,69.706970 234.363144,66.822868 243.143524,62.508518 
	C241.201630,54.208614 238.874054,52.775494 231.513168,55.451538 
	C227.457520,56.925964 223.502502,58.681206 219.522369,60.357918 
	C216.711380,61.542099 213.842636,62.211639 212.153076,58.931679 
	C210.700531,56.111805 212.085922,53.780972 214.573425,52.132420 
	C221.513168,47.533234 228.654419,43.315197 236.364075,40.080799 
	C239.932755,38.583645 242.821915,39.671513 245.972687,41.879978 
z"/>
<!-- water -->
<path fill="#0097eb" opacity="1.000000" stroke="none" 
	d="
M290.658264,81.467926 
	C280.307709,81.539986 270.768921,83.876869 261.339111,86.607048 
	C245.520798,91.186882 229.719818,92.876251 213.768158,87.346222 
	C208.541931,85.534431 203.554550,83.255997 199.192612,79.809113 
	C197.930130,78.811478 196.284134,77.594528 197.629929,75.692238 
	C198.711121,74.163940 200.319748,74.756660 201.710556,75.428970 
	C220.395020,84.460846 239.389603,83.299530 258.695465,77.592148 
	C269.077789,74.522820 279.666016,72.253426 290.679199,73.815598 
	C297.230469,74.744873 303.172424,77.267189 308.960114,80.265694 
	C310.436340,81.030495 312.160675,81.994354 311.168091,84.068527 
	C310.353821,85.770134 308.555603,85.451195 307.171295,84.981300 
	C301.936584,83.204384 296.496094,82.455078 290.658264,81.467926 
z"/>
<!-- hockey head -->
<path fill="#0097eb" opacity="1.000000" stroke="none" 
	d="
M146.484528,54.247162 
	C141.965027,61.631107 135.794296,64.267517 128.633606,62.153976 
	C121.262543,59.978348 118.612907,55.389286 118.696693,44.491756 
	C115.466034,45.422474 113.991524,48.066402 112.194427,50.275169 
	C108.923294,54.295650 105.189247,57.506229 99.608292,57.204769 
	C96.177643,57.019459 93.199173,55.928837 91.588524,51.137672 
	C99.013321,53.374523 101.950989,48.397785 105.459976,44.160442 
	C109.566040,39.202065 114.603783,36.170921 121.222610,38.801846 
	C123.849800,39.846130 125.305214,38.108906 127.168221,37.304752 
	C132.835831,34.858391 138.039246,35.910568 142.571182,39.690525 
	C147.002930,43.386917 149.104660,48.071850 146.484528,54.247162 
z"/>
<!-- climber head -->
<path fill="#fff" opacity="1.000000" stroke="none" 
	d="
M155.368942,191.924408 
	C152.888626,197.557480 148.729935,200.334778 143.067154,200.121674 
	C137.766602,199.922195 134.033676,196.821060 132.120041,191.955856 
	C130.301086,187.331436 131.586807,183.122101 134.899536,179.541245 
	C138.674561,175.460709 144.689896,174.519516 149.506287,177.171036 
	C154.775986,180.072128 156.929688,185.250214 155.368942,191.924408 
z"/>
<!-- swimmer head -->
<path fill="#fff" opacity="1.000000" stroke="none" 
	d="
M280.770752,51.526482 
	C291.636902,50.589802 298.964111,57.740269 297.180878,67.074738 
	C296.572784,70.257996 295.317230,72.293030 291.474457,71.235695 
	C286.456451,69.855019 281.292450,70.066307 276.148773,70.337120 
	C271.224915,70.596359 269.191772,68.500275 269.977173,63.603432 
	C270.952942,57.519630 274.247803,53.288010 280.770752,51.526482 
z"/>
<!-- litfer head -->
<path fill="#7ADB78" opacity="1.000000" stroke="none" 
	d="
M250.675903,147.846985 
	C251.242950,139.986725 255.506470,135.618469 262.093048,135.716919 
	C268.105530,135.806808 272.928833,140.296387 273.315918,146.163330 
	C273.753845,152.800385 269.749237,157.865250 263.335938,158.785492 
	C257.186127,159.667923 252.348221,155.646881 250.675903,147.846985 
z"/>
<path fill="#0097eb" opacity="1.000000" stroke="none" 
	d="
M112.051407,163.938202 
	C115.001358,163.899918 117.329506,163.000183 119.701538,162.267334 
	C122.702690,161.340118 124.465508,162.825226 124.284111,165.620499 
	C124.018524,169.712952 121.753334,172.802200 117.714317,174.118011 
	C113.983627,175.333389 110.847000,174.251282 108.585258,170.992615 
	C105.822250,167.011734 106.673317,165.088943 112.051407,163.938202 
z"/>
<path fill="#0097eb" opacity="1.000000" stroke="none" 
	d="
M82.982452,189.864105 
	C85.304749,191.206406 87.221764,192.477707 89.572067,192.898529 
	C93.296585,193.565445 93.169212,195.633759 91.345055,198.205612 
	C88.097633,202.784058 82.699028,204.627014 79.448105,202.274521 
	C76.087479,199.842636 75.324471,194.788574 77.745552,191.175476 
	C78.986900,189.322983 80.417831,188.215851 82.982452,189.864105 
z"/>
<path fill="#0097eb" opacity="1.000000" stroke="none" 
	d="
M70.051010,279.208557 
	C71.895767,276.036743 74.376633,274.209717 77.625320,273.570221 
	C80.600342,272.984558 82.766525,274.407684 84.373657,276.750641 
	C85.891212,278.963013 85.398087,281.203705 84.003052,283.243896 
	C82.420731,285.558014 80.011787,285.477325 77.730873,284.787598 
	C74.654182,283.857239 71.046585,283.536743 70.051010,279.208557 
z"/>
<path fill="#0097eb" opacity="1.000000" stroke="none" 
	d="
M163.575485,278.292969 
	C162.564194,280.356720 161.255203,281.589905 159.489578,282.259338 
	C155.747223,283.678284 152.880554,282.377533 151.304108,278.909149 
	C149.617844,275.199158 151.474350,272.946075 155.074814,271.836609 
	C155.863876,271.593506 156.653000,271.337860 157.458374,271.162781 
	C159.895950,270.632721 162.592285,269.889984 164.479675,271.951477 
	C166.248810,273.883789 164.323547,275.967499 163.575485,278.292969 
z"/>
<path fill="#7ADB78" opacity="1.000000" stroke="none" 
	d="
M165.990723,110.901947 
	C157.885849,110.875114 150.255081,111.138298 141.406937,110.142868 
	C146.095078,107.105003 177.473251,107.029228 182.158020,109.675270 
	C176.535172,111.515282 171.439789,110.608017 165.990723,110.901947 
z"/>
<path fill="#0097eb" opacity="1.000000" stroke="none" 
	d="
M186.652252,282.380310 
	C182.622009,276.830627 183.126022,275.632690 189.467209,274.747833 
	C189.796127,274.701965 190.127045,274.668182 190.457947,274.639160 
	C192.760559,274.437286 195.307770,272.253448 197.246536,275.168823 
	C198.440887,276.964844 197.521606,278.778168 196.327621,280.203552 
	C194.370651,282.539856 192.152130,284.599396 188.682709,283.585541 
	C188.063828,283.404694 187.524948,282.950134 186.652252,282.380310 
z"/>
<path fill="#0097eb" opacity="1.000000" stroke="none" 
	d="
M117.765770,310.299072 
	C115.215782,310.526794 113.423264,309.858063 112.138283,308.102875 
	C111.012283,306.564819 110.367355,304.790497 111.086418,302.966980 
	C111.894722,300.917175 113.825356,301.606079 115.421303,301.628754 
	C117.076233,301.652252 118.731606,301.675842 120.385460,301.735748 
	C122.102005,301.797913 124.370407,300.784302 125.151886,303.106750 
	C125.899704,305.329224 124.109207,306.854584 122.546089,308.036224 
	C121.263039,309.006134 119.645927,309.534149 117.765770,310.299072 
z"/>
<path fill="#7ADB78" opacity="1.000000" stroke="none" 
	d="
M68.567947,110.869499 
	C59.307953,110.874207 50.503399,110.874207 41.698841,110.874207 
	C44.515091,107.105293 70.401909,106.890587 74.450523,109.252525 
	C73.008110,111.121201 70.872612,110.533768 68.567947,110.869499 
z"/>
<path fill="#0097eb" opacity="1.000000" stroke="none" 
	d="
M205.380798,218.552765 
	C203.901932,217.320694 203.030136,216.117630 202.850494,214.556183 
	C202.659744,212.898270 202.423203,210.456284 204.395966,210.429260 
	C208.278976,210.376022 212.505615,210.744629 215.739990,212.826080 
	C217.644974,214.052017 215.504227,216.449661 214.041534,217.748016 
	C211.561462,219.949463 208.689209,220.141479 205.380798,218.552765 
z"/>
<path fill="#7ADB78" opacity="1.000000" stroke="none" 
	d="
M183.545670,140.952621 
	C186.845398,142.428711 188.443680,144.583527 187.020126,147.760223 
	C185.817551,150.443771 183.208755,150.724350 180.661362,150.178757 
	C178.048248,149.619080 176.650208,147.627563 177.019012,145.108490 
	C177.503891,141.796616 179.967758,140.623795 183.545670,140.952621 
z"/>
<path fill="#fff" opacity="1.000000" stroke="none" 
	d="
M327.696167,133.422302 
	C326.035278,137.026596 326.035278,137.026596 322.550598,137.854843 
	C321.592712,133.936661 323.115051,130.587479 324.516083,127.002113 
	C328.322540,127.777756 328.292206,130.291214 327.696167,133.422302 
z"/>
<path fill="#fff" opacity="1.000000" stroke="none" 
	d="
M200.301544,130.954926 
	C200.400528,133.429108 201.932449,135.456848 200.592148,137.566284 
	C196.411606,137.048889 193.511993,131.025177 196.327667,128.213730 
	C199.300613,125.245232 199.490494,128.780411 200.301544,130.954926 
z"/>
</svg>